<svg width="50" height="50" viewBox="0 0 50 50" fill="none" xmlns="http://www.w3.org/2000/svg">
<path fill-rule="evenodd" clip-rule="evenodd" d="M49.3027 4.06454C50.2325 3.13472 50.2325 1.62718 49.3027 0.697365C48.3729 -0.232455 46.8654 -0.232455 45.9355 0.697365L40.8173 5.81561C36.5045 2.25348 30.9738 0.113395 24.9433 0.113395C11.1675 0.113395 0 11.2809 0 25.0567C0 38.8325 11.1675 50 24.9433 50C38.7191 50 49.8866 38.8325 49.8866 25.0567C49.8866 19.0262 47.7466 13.4956 44.1845 9.18279L49.3027 4.06454ZM37.5925 9.04035C34.1152 6.29026 29.721 4.64854 24.9433 4.64854C13.6722 4.64854 4.53515 13.7856 4.53515 25.0567C4.53515 36.3278 13.6722 45.4649 24.9433 45.4649C36.2144 45.4649 45.3515 36.3278 45.3515 25.0567C45.3515 20.2791 43.7098 15.8849 40.9597 12.4075L36.0998 17.2674C37.6432 19.474 38.5487 22.1596 38.5487 25.0567C38.5487 32.5708 32.4574 38.6621 24.9433 38.6621C17.4292 38.6621 11.3379 32.5708 11.3379 25.0567C11.3379 17.5426 17.4292 11.4513 24.9433 11.4513C27.8404 11.4513 30.5261 12.3568 32.7326 13.9003L37.5925 9.04035ZM29.4496 17.1833C28.1221 16.4218 26.5835 15.9864 24.9433 15.9864C19.9339 15.9864 15.873 20.0473 15.873 25.0567C15.873 30.0661 19.9339 34.127 24.9433 34.127C29.9527 34.127 34.0136 30.0661 34.0136 25.0567C34.0136 23.4165 33.5782 21.878 32.8168 20.5504L26.627 26.7403C25.6971 27.6701 24.1896 27.6701 23.2598 26.7403C22.33 25.8105 22.33 24.3029 23.2598 23.3731L29.4496 17.1833Z" fill="black"/>
</svg>
