<svg width="30" height="30" viewBox="0 0 30 30" fill="none" xmlns="http://www.w3.org/2000/svg">
<g clip-path="url(#clip0)">
<path fill-rule="evenodd" clip-rule="evenodd" d="M29.5816 2.43872C30.1395 1.88083 30.1395 0.976308 29.5816 0.418419C29.0237 -0.139473 28.1192 -0.139473 27.5613 0.418419L24.4904 3.48937C21.9027 1.35209 18.5843 0.068037 14.966 0.068037C6.7005 0.068037 0 6.76854 0 15.034C0 23.2995 6.7005 30 14.966 30C23.2315 30 29.932 23.2995 29.932 15.034C29.932 11.4157 28.648 8.09736 26.5107 5.50967L29.5816 2.43872ZM22.5555 5.42421C20.4691 3.77416 17.8326 2.78912 14.966 2.78912C8.20332 2.78912 2.72109 8.27136 2.72109 15.034C2.72109 21.7967 8.20332 27.2789 14.966 27.2789C21.7286 27.2789 27.2109 21.7967 27.2109 15.034C27.2109 12.1675 26.2259 9.53094 24.5758 7.4445L21.6599 10.3604C22.5859 11.6844 23.1292 13.2958 23.1292 15.034C23.1292 19.5425 19.4744 23.1973 14.966 23.1973C10.4575 23.1973 6.80274 19.5425 6.80274 15.034C6.80274 10.5256 10.4575 6.87078 14.966 6.87078C16.7042 6.87078 18.3157 7.41408 19.6396 8.34018L22.5555 5.42421ZM17.6698 10.31C16.8733 9.85308 15.9501 9.59184 14.966 9.59184C11.9603 9.59184 9.5238 12.0284 9.5238 15.034C9.5238 18.0397 11.9603 20.4762 14.966 20.4762C17.9716 20.4762 20.4082 18.0397 20.4082 15.034C20.4082 14.0499 20.1469 13.1268 19.6901 12.3302L15.9762 16.0442C15.4183 16.6021 14.5138 16.6021 13.9559 16.0442C13.398 15.4863 13.398 14.5817 13.9559 14.0239L17.6698 10.31Z" fill="#333333"/>
</g>
<defs>
<clipPath id="clip0">
<rect width="30" height="30" fill="white"/>
</clipPath>
</defs>
</svg>
