<svg width="30" height="30" viewBox="0 0 30 30" fill="none" xmlns="http://www.w3.org/2000/svg">
<path d="M5 11.2607V21.2393C5 21.9355 5.5602 22.5 6.24386 22.5H23.7561C24.4417 22.5 25 21.9378 25 21.2393V11.2607C25 10.5645 24.4398 10 23.7561 10H6.24386C5.55834 10 5 10.5622 5 11.2607ZM21.25 7.5C21.25 6.80964 21.8048 6.25 22.5 6.25C23.1904 6.25 23.75 6.80483 23.75 7.5H23.7561C25.8248 7.5 27.5 9.18805 27.5 11.2607V21.2393C27.5 23.3146 25.8263 25 23.7561 25H6.24386C4.17519 25 2.5 23.312 2.5 21.2393V11.2607C2.5 9.18537 4.17374 7.5 6.24386 7.5H6.25C6.25 6.80964 6.80483 6.25 7.5 6.25C8.19036 6.25 8.75 6.80483 8.75 7.5H10.1575C10.7126 5.34347 12.6702 3.75 15 3.75C17.3298 3.75 19.2874 5.34347 19.8425 7.5H21.25ZM12.8345 7.5H17.1655C16.7333 6.75275 15.9254 6.25 15 6.25C14.0746 6.25 13.2667 6.75275 12.8345 7.5Z" fill="#333333"/>
</svg>
