<svg width="30" height="30" viewBox="0 0 30 30" fill="none" xmlns="http://www.w3.org/2000/svg">
<path fill-rule="evenodd" clip-rule="evenodd" d="M5 9.99629V18.75V20H6.25H23.75H25V18.75V9.99629C25 8.62161 23.8725 7.5 22.4914 7.5H7.50856C6.12501 7.5 5 8.61468 5 9.99629ZM2.5 21.875C2.5 22.901 3.34003 23.75 4.37526 23.75H25.6247C26.6559 23.75 27.5 22.9105 27.5 21.875C27.5 20.849 26.66 20 25.6247 20H4.37526C3.34407 20 2.5 20.8395 2.5 21.875Z" stroke="#333333" stroke-width="2"/>
<path d="M8.95574 10.3333C8.06269 10.7799 7.5 11.6239 7.5 12.8125C7.5 13.3303 7.91973 13.75 8.4375 13.75C8.95527 13.75 9.375 13.3303 9.375 12.8125C9.375 12.3605 9.51543 12.1498 9.79426 12.0104C9.99226 11.9114 10.2107 11.875 10.3125 11.875C10.8303 11.875 11.25 11.4553 11.25 10.9375C11.25 10.4197 10.8303 10 10.3125 10C9.94557 10 9.46087 10.0808 8.95574 10.3333Z" fill="#333333"/>
</svg>
