<svg width="30" height="30" viewBox="0 0 30 30" fill="none" xmlns="http://www.w3.org/2000/svg">
<path d="M3.75 9.99813V23.7519C3.75 24.4406 4.30595 25 4.99175 25H25.0083C25.6938 25 26.25 24.4412 26.25 23.7519V9.99813C26.25 9.30936 25.6941 8.75 25.0083 8.75H4.99175C4.30618 8.75 3.75 9.30881 3.75 9.99813ZM1.25 9.99813C1.25 7.93096 2.92259 6.25 4.99175 6.25H25.0083C27.0776 6.25 28.75 7.93149 28.75 9.99813V23.7519C28.75 25.819 27.0774 27.5 25.0083 27.5H4.99175C2.92238 27.5 1.25 25.8185 1.25 23.7519V9.99813ZM3.75 13.75V11.25H26.25V13.75H3.75ZM7.5 3.7487C7.5 3.05906 8.05483 2.5 8.75 2.5C9.44036 2.5 10 3.05333 10 3.7487V6.25H7.5V3.7487ZM20 3.7487C20 3.05906 20.5548 2.5 21.25 2.5C21.9404 2.5 22.5 3.05333 22.5 3.7487V6.25H20V3.7487Z" fill="#333333"/>
</svg>
