<svg width="30" height="30" viewBox="0 0 30 30" fill="none" xmlns="http://www.w3.org/2000/svg">
<path d="M8.75 25.0051V15.6528C8.75 14.9791 9.25212 14.6235 9.87152 14.8896C9.87152 14.8896 11.25 15.5921 12.5 15.5921C13.75 15.5921 17.5 13.2237 20 13.2237C22.5 13.2237 23.8333 13.9467 23.8333 13.9467C24.4903 14.1907 25 13.8534 25 13.1694V6.17273C25 5.49846 24.4777 4.72771 23.8333 4.47297C23.8333 4.47297 22.5 3.75 20 3.75C17.5 3.75 15 6.11842 12.5 6.11842C10 6.11842 7.44695 5.27673 7.44695 5.27673C6.78635 5.09392 6.25 5.48855 6.25 6.17237V25.0118C6.25 25.6799 6.80964 26.25 7.5 26.25C8.19517 26.25 8.75 25.6926 8.75 25.0051ZM27.5 6.17273V13.1694C27.5 15.6221 25.2292 17.132 22.9629 16.2902L22.7971 16.2287L22.6416 16.1444C22.6345 16.1405 22.4789 16.0762 22.1804 15.9927C21.5887 15.8271 20.8618 15.7237 20 15.7237C19.5921 15.7237 18.9352 15.8773 18.0709 16.1893C17.6821 16.3296 17.2659 16.4954 16.7514 16.712C16.5095 16.8138 15.457 17.265 15.7457 17.1416C15.3314 17.3186 15.0399 17.4399 14.7601 17.5496C13.8409 17.9099 13.2022 18.0921 12.5 18.0921C12.3215 18.0921 12.1422 18.0839 11.962 18.0683C11.7238 18.0476 11.4865 18.0144 11.25 17.9701V25.0051C11.25 27.0758 9.57344 28.75 7.5 28.75C5.43481 28.75 3.75 27.0664 3.75 25.0118V6.17237C3.75 3.82539 5.87087 2.2466 8.2297 2.90243C8.47432 2.98308 8.9525 3.11861 9.5762 3.25664C10.5534 3.47292 11.5194 3.60605 12.3808 3.61761C12.4407 3.61829 12.4407 3.61829 12.5 3.61842C13.0326 3.61842 13.6535 3.39785 15.1798 2.67487C17.4035 1.62154 18.4493 1.25 20 1.25C21.3257 1.25 22.5051 1.41774 23.5279 1.70399C24.1132 1.86778 24.5692 2.04628 24.8925 2.20667C26.4126 2.87769 27.5 4.51708 27.5 6.17273Z" fill="#333333"/>
</svg>
