<svg width="30" height="30" viewBox="0 0 30 30" fill="none" xmlns="http://www.w3.org/2000/svg">
<path d="M3.75 11.2531V23.7469C3.75 24.4303 4.30595 25 4.99175 25H25.0083C25.6938 25 26.25 24.4417 26.25 23.7531V14.9969C26.25 14.3079 25.6923 13.75 25.0044 13.75H18.3892L15.0614 10H5.00374C4.31094 10 3.75 10.561 3.75 11.2531ZM25.0044 11.25C27.0737 11.25 28.75 12.9278 28.75 14.9969V23.7531C28.75 25.8201 27.0769 27.5 25.0083 27.5H4.99175C2.92037 27.5 1.25 25.8063 1.25 23.7469V11.2531C1.25 9.18001 2.93053 7.5 5.00374 7.5H16.1853L19.5131 11.25H25.0044ZM8.29545 6.79939C8.29545 6.79939 8.29545 6.94348 8.29545 7.64053C8.29545 8.11721 9.67079 8.90483 11.25 8.75C12.707 8.60716 15.85 8.60957 16.4938 9.47327C18.75 12.5 26.7045 13.4204 26.7045 12.5V9.84126C26.7045 9.28141 26.2483 8.82812 25.6854 8.82812H20.273L17.5503 5.78125H9.32124C8.7544 5.78125 8.29545 6.23709 8.29545 6.79939ZM25.6854 6.79688C27.3785 6.79688 28.75 8.16009 28.75 9.84126V15C28.75 15.5711 27.5 12.5 18.75 12.5C16.2255 11.5529 17.6281 10.5667 15 9.84126C12.177 9.06205 8.82085 9.93453 7.24228 9.90644C6.22464 9.88833 6.25 9.10637 6.25 8.75V6.79939C6.25 5.11501 7.62498 3.75 9.32124 3.75H18.4698L21.1926 6.79688H25.6854Z" fill="#333333"/>
</svg>
