<svg width="50" height="50" viewBox="0 0 50 50" fill="none" xmlns="http://www.w3.org/2000/svg">
<path d="M5.55556 8.32754V13.8947C5.55556 15.4196 6.80103 16.6667 8.32754 16.6667H13.8947C15.4196 16.6667 16.6667 15.4212 16.6667 13.8947V8.32754C16.6667 6.80265 15.4212 5.55556 13.8947 5.55556H8.32754C6.80265 5.55556 5.55556 6.80103 5.55556 8.32754ZM0 8.32754C0 3.73116 3.73602 0 8.32754 0H13.8947C18.4911 0 22.2222 3.73602 22.2222 8.32754V13.8947C22.2222 18.4911 18.4862 22.2222 13.8947 22.2222H8.32754C3.73116 22.2222 0 18.4862 0 13.8947V8.32754ZM27.7778 8.32754C27.7778 3.73116 31.5138 0 36.1053 0H41.6725C46.2688 0 50 3.73602 50 8.32754V13.8947C50 18.4911 46.264 22.2222 41.6725 22.2222H36.1053C31.5089 22.2222 27.7778 18.4862 27.7778 13.8947V8.32754ZM33.3333 8.32754V13.8947C33.3333 15.4196 34.5788 16.6667 36.1053 16.6667H41.6725C43.1973 16.6667 44.4444 15.4212 44.4444 13.8947V8.32754C44.4444 6.80265 43.199 5.55556 41.6725 5.55556H36.1053C34.5804 5.55556 33.3333 6.80103 33.3333 8.32754ZM0 36.1053C0 31.5089 3.73602 27.7778 8.32754 27.7778H13.8947C18.4911 27.7778 22.2222 31.5138 22.2222 36.1053V41.6725C22.2222 46.2688 18.4862 50 13.8947 50H8.32754C3.73116 50 0 46.264 0 41.6725V36.1053ZM5.55556 36.1053V41.6725C5.55556 43.1973 6.80103 44.4444 8.32754 44.4444H13.8947C15.4196 44.4444 16.6667 43.199 16.6667 41.6725V36.1053C16.6667 34.5804 15.4212 33.3333 13.8947 33.3333H8.32754C6.80265 33.3333 5.55556 34.5788 5.55556 36.1053ZM27.7778 36.1053C27.7778 31.5089 31.5138 27.7778 36.1053 27.7778H41.6725C46.2688 27.7778 50 31.5138 50 36.1053V41.6725C50 46.2688 46.264 50 41.6725 50H36.1053C31.5089 50 27.7778 46.264 27.7778 41.6725V36.1053ZM33.3333 36.1053V41.6725C33.3333 43.1973 34.5788 44.4444 36.1053 44.4444H41.6725C43.1973 44.4444 44.4444 43.199 44.4444 41.6725V36.1053C44.4444 34.5804 43.199 33.3333 41.6725 33.3333H36.1053C34.5804 33.3333 33.3333 34.5788 33.3333 36.1053Z" fill="black"/>
</svg>
