<svg width="49" height="50" viewBox="0 0 49 50" fill="none" xmlns="http://www.w3.org/2000/svg">
<path fill-rule="evenodd" clip-rule="evenodd" d="M0.213257 47.5945C0.213257 46.266 1.30303 45.1891 2.61159 45.1891H17.0588C18.3833 45.1891 19.4571 46.2568 19.4571 47.5945C19.4571 48.923 18.3673 50 17.0588 50H2.61159C1.28703 50 0.213257 48.9323 0.213257 47.5945ZM21.8626 47.5945C21.8626 46.266 22.9159 45.1891 24.2751 45.1891H36.2884C37.6208 45.1891 38.7009 46.2568 38.7009 47.5945C38.7009 48.923 37.6476 50 36.2884 50H24.2751C22.9427 50 21.8626 48.9323 21.8626 47.5945ZM41.1064 47.5945C41.1064 46.266 42.1712 45.1891 43.5094 45.1891H45.9199C47.247 45.1891 48.3228 46.2568 48.3228 47.5945C48.3228 48.923 47.258 50 45.9199 50H43.5094C42.1822 50 41.1064 48.9323 41.1064 47.5945Z" fill="black"/>
<path d="M12.7563 34.8698L21.111 33.3188L39.2673 15.1625C40.1699 14.2599 40.1536 12.7388 39.2054 11.7906L35.8354 8.42062C34.8727 7.45787 33.3776 7.44474 32.4636 8.35878L14.3073 26.5151L12.7563 34.8698ZM6.80372 40.8223L9.90566 24.113L29.0617 4.95692C31.8049 2.21369 36.3016 2.28296 39.1373 5.11873L42.5073 8.48872C45.3286 11.31 45.4008 15.8327 42.6691 18.5644L23.5131 37.7204L6.80372 40.8223Z" fill="black"/>
</svg>
