<svg width="30" height="31" viewBox="0 0 30 31" fill="none" xmlns="http://www.w3.org/2000/svg">
<g clip-path="url(#clip0)">
<path fill-rule="evenodd" clip-rule="evenodd" d="M0.130615 29.1394C0.130615 28.3261 0.797823 27.6667 1.59898 27.6667H10.4442C11.2551 27.6667 11.9126 28.3204 11.9126 29.1394C11.9126 29.9528 11.2453 30.6122 10.4442 30.6122H1.59898C0.788027 30.6122 0.130615 29.9585 0.130615 29.1394ZM13.3853 29.1394C13.3853 28.3261 14.0302 27.6667 14.8624 27.6667H22.2174C23.0332 27.6667 23.6945 28.3204 23.6945 29.1394C23.6945 29.9528 23.0496 30.6122 22.2174 30.6122H14.8624C14.0466 30.6122 13.3853 29.9585 13.3853 29.1394ZM25.1672 29.1394C25.1672 28.3261 25.8192 27.6667 26.6385 27.6667H28.1143C28.9268 27.6667 29.5854 28.3204 29.5854 29.1394C29.5854 29.9528 28.9335 30.6122 28.1143 30.6122H26.6385C25.8259 30.6122 25.1672 29.9585 25.1672 29.1394Z" fill="#333333"/>
<path d="M7.80996 21.3489L12.9251 20.3993L24.0412 9.2832C24.5938 8.73059 24.5838 7.7993 24.0033 7.21877L21.94 5.15552C21.3506 4.56608 20.4352 4.55804 19.8757 5.11766L8.75956 16.2338L7.80996 21.3489ZM4.16553 24.9933L6.06467 14.7631L17.7929 3.03489C19.4724 1.35536 22.2255 1.39777 23.9616 3.13395L26.0249 5.19721C27.7522 6.92453 27.7964 9.69353 26.1239 11.366L14.3958 23.0942L4.16553 24.9933Z" fill="#333333"/>
</g>
<defs>
<clipPath id="clip0">
<rect width="30" height="30.6122" fill="white"/>
</clipPath>
</defs>
</svg>
