<svg width="493" height="427" viewBox="0 0 493 427" fill="none" xmlns="http://www.w3.org/2000/svg">
<path d="M16.8229 225.371C60.0996 136.907 183.86 7.34016 344.675 7.0006C512.494 6.63557 528.724 173.096 438.275 219.352C347.825 265.608 480.083 323.274 385.533 381.228C289.845 439.878 85.3373 434.369 35.0063 388.749C-15.3248 343.13 -1.86979 263.588 16.8229 225.371Z" fill="#F3F3F3"/>
<path d="M208.721 374.048C209.273 374.388 209.961 374.82 210.801 375.296C221.073 381.136 221.421 371.357 222.058 371.773L222.431 368.08L209.401 368.318L208.721 374.048Z" fill="url(#paint0_linear)"/>
<path d="M191.463 396.883C188.696 399.353 188.917 404.387 191.565 406.985C192.393 407.839 193.361 408.545 194.426 409.073V409.073C206.005 405.151 223.331 387.409 227.881 383.157C227.652 379.413 227.669 372.919 222.423 370.661C219.494 376.357 213.874 377.053 210.793 375.296C209.944 374.82 209.265 374.387 208.713 374.048C207.244 373.199 206.701 373.012 206.701 374.71C206.701 377.053 204.222 385.084 199.689 389.99C197.431 392.503 193.968 394.642 191.463 396.883Z" fill="#2B2B2B"/>
<path d="M194.036 408.921C195.26 409.511 196.651 409.664 197.974 409.354C203.068 408.191 221.336 393.759 226.727 388.471C228.289 386.934 227.924 384.498 227.491 383.004C222.941 387.257 205.615 405.007 194.036 408.921Z" fill="#0D0D0D"/>
<path d="M188.738 262.172V287.019L150.156 263.046V259.676L184.061 282.197L188.738 262.172V262.172Z" fill="#361F22"/>
<path d="M240.377 398.377C242.499 399.107 244.469 393.853 246.956 392.843C248.323 392.265 250.674 392.325 252.499 392.503L253.178 386.128L240.131 384.362L238.721 394.26C238.721 394.26 238.263 397.656 240.377 398.377Z" fill="url(#paint1_linear)"/>
<path d="M196.396 293.785L206.243 371.968L225.937 370.661L226.684 299.965C226.684 299.965 234.638 234.685 241.268 235.856C247.898 237.028 234.961 391.552 234.961 391.552C234.961 391.552 238.645 393.793 247.355 392.987C250.258 392.724 252.448 392.613 254.002 392.588C256.361 392.555 258.354 390.827 258.721 388.496L283.679 226.637C279.212 220.78 275.08 214.675 271.302 208.352L248.959 211L242.771 189.362L233.17 211.009L207.143 205.168C206.572 211.562 205.124 217.846 202.839 223.844L196.396 293.785Z" fill="#0F2913"/>
<path d="M231.896 405.839C231.896 405.839 239.358 412.274 244.63 415.924C249.901 419.574 262.304 424.26 266.26 424.413C267.657 424.486 269.044 424.147 270.249 423.437C272.181 422.308 273.344 420.215 273.28 417.978C273.28 414.022 269.036 412.715 262.448 408.182C257.1 404.489 255.657 396.637 255.258 393.853C255.183 393.241 254.705 392.757 254.095 392.673C253.662 392.613 253.11 392.554 252.508 392.503C250.682 392.325 248.331 392.265 246.964 392.842C244.477 393.853 242.508 399.107 240.385 398.377C238.263 397.647 238.73 394.277 238.73 394.277L238.025 394.37C236.433 394.594 235.112 395.714 234.63 397.248L231.896 405.839Z" fill="#2B2B2B"/>
<path d="M231.633 406.747C231.17 408.325 231.707 410.025 232.991 411.051C236.336 413.708 239.698 417.359 246.837 420.916C252.024 423.505 259.672 426.306 264.774 426.747C267.253 426.96 270.895 425.05 271.905 422.011C270.079 422.929 268.087 423.472 266.047 423.607C262.092 423.454 249.918 419.583 244.621 415.924C239.324 412.265 231.888 405.839 231.888 405.839L231.633 406.747Z" fill="#0D0D0D"/>
<path d="M225.937 41.6625C224.808 39.6506 223.289 34.0224 222.542 32.3246C225.487 32.1379 228.849 35.9324 229.333 38.5301C228.628 38.5725 226.633 40.9494 225.937 41.6625Z" fill="url(#paint2_linear)"/>
<path d="M245.054 87.3925C249.777 87.3695 253.897 84.182 255.105 79.6167C255.322 78.2981 255.368 76.9571 255.241 75.6268V74.2262L255.19 72.9019L255.139 71.289C255.889 71.2386 256.635 71.1393 257.372 70.9919C263.161 69.8798 272.143 65.6778 274.545 56.1277C276.243 49.4639 273.441 43.547 273.187 39.6931C272.932 35.8391 274.341 33.0122 274.791 28.6574C275.377 23.0717 272.762 16.272 269.944 14.8034C257.278 8.11411 235.479 16.238 235.479 16.238C235.479 16.238 228.238 19.9647 232.083 35.2788C231.294 34.8119 232.991 38.0038 231.93 37.8255C230.079 37.4653 228.163 37.9166 226.667 39.0649C223.985 41.3824 224.256 46.6455 230.165 53.581C230.231 53.6669 230.302 53.7491 230.377 53.8272C230.639 55.2782 230.811 56.7439 230.895 58.216C230.895 58.4367 230.895 58.6659 230.937 58.9036C231.115 61.6201 231.336 65.1345 231.548 68.5386C231.854 73.4537 231.93 77.6897 231.981 79.3365C232.083 83.3178 236.693 87.6812 245.054 87.3925Z" fill="url(#paint3_linear)"/>
<path d="M232.041 35.2533C228.212 19.9732 235.436 16.2126 235.436 16.2126C235.436 16.2126 257.236 8.08866 269.901 14.778C271.888 15.8136 272.389 18.7932 272.974 21.323C267.881 17.7067 258.051 19.9053 250.241 20.6099C246.514 20.9494 248.433 24.8544 247.406 25.1005C239.019 24.1158 233.823 28.6235 236.022 40.2449L231.964 37.8255C232.83 37.7661 231.277 34.8034 232.041 35.2533Z" fill="url(#paint4_linear)"/>
<path d="M222.066 31.4927C221.429 28.8017 221.379 25.8306 221.506 21.7644C221.769 12.9868 226.718 8.35182 235.233 5.02415L243.458 2.37559C244.205 2.1379 258.119 -1.68214 265.462 0.881531C268.221 1.84078 272.151 4.72703 272.584 7.08696C273.671 13.1056 274.426 16.2975 273.942 21.1277C268.637 9.41294 264.944 25.0836 247.075 15.6099C243.764 13.8527 245.258 19.8544 244.239 20.1005C234.774 18.9885 229.35 24.8629 234.053 40.0581C231.506 39.1498 229.698 38.0207 228.263 38.1141C226.073 36.272 222.406 32.9019 222.066 31.4927Z" fill="#2E2E2E"/>
<path d="M230.895 58.9461C236.38 67.3604 245.279 72.9457 255.241 74.2262L255.19 72.9019L255.139 71.289C255.889 71.2386 256.635 71.1394 257.372 70.9919C252.092 68.0038 237.355 59.4894 230.148 53.6065C230.214 53.6924 230.285 53.7746 230.36 53.8527C230.622 55.3037 230.794 56.7694 230.878 58.2415C230.861 58.4367 230.886 58.6659 230.895 58.9461Z" fill="url(#paint5_linear)"/>
<path d="M232.321 39.6761C231.981 39.4214 230.971 38.8272 230.971 38.8272L231.064 35.8306L235.665 37.7236C236.548 38.0891 237.145 38.9262 237.202 39.8798L237.856 50.3212C244.146 52.6472 258.866 59.9902 261.353 59.9222C264.519 59.8289 264.791 55.7966 266.616 56.3569C268.441 56.9172 268.654 59.2686 269.8 59.0479C270.402 58.929 273.823 55.7032 274.783 53.8017C274.783 53.8017 274.078 60.6863 273.874 61.9087C273.407 64.7525 268.704 71.2465 268.704 71.2465C268.231 71.9564 267.458 72.4101 266.608 72.4774L259.205 73.0292L255.122 71.4927C249.485 69.5827 235.479 60.4571 235.131 58.8526C233.059 49.71 235.716 42.2482 232.321 39.6761Z" fill="#2E2E2E"/>
<path d="M231.642 42.817C231.642 42.817 229.409 40.0751 228.059 42.3331C226.71 44.5912 229.214 48.1651 229.214 48.1651L231.642 42.817Z" fill="url(#paint6_linear)"/>
<path d="M200.334 258.038L187.423 251.06L187.618 231.28L181.039 230.016L181.141 246.476L168.475 238.428C167.491 237.803 166.339 237.492 165.173 237.537L148.543 238.199L188.738 262.172H199.961L200.334 258.038Z" fill="#361F22"/>
<path d="M258.195 180.287C264.986 164.354 274.104 119.549 274.104 119.549L270.003 113.997L276.149 108.734L268.764 83.2245V83.2245C264.681 82.5454 261.718 82.2483 261.718 82.2483C261.714 82.2907 261.714 82.3333 261.718 82.3756C261.616 83.0547 258.238 86.4418 257.635 91.5267C257.304 94.1838 256.939 97.2907 256.582 100.729V100.729C254.664 118.369 256.413 165.839 258.195 180.287Z" fill="url(#paint7_linear)"/>
<path d="M207.143 205.168L233.17 211.009L242.771 189.37L248.959 211.009L271.302 208.352C267.329 201.747 267.406 208.216 264.358 201.102C261.946 195.682 260.092 190.03 258.823 184.235C258.671 183.505 258.543 182.792 258.441 182.095C258.348 181.518 258.263 180.915 258.195 180.296V180.296C256.412 165.865 254.664 118.369 256.574 100.737L252.957 110.729L245.453 131.527L239.698 114.719L227.007 91.2041C223.28 104.15 220.98 127.91 216.311 141.068C216.115 141.637 215.903 142.248 215.716 142.893C211.896 155.287 208.9 187.783 207.143 205.168Z" fill="url(#paint8_linear)"/>
<path d="M239.698 114.727L245.453 131.535L252.957 110.737L250.012 93.9206H245.929L239.698 114.727V114.727Z" fill="#18441F"/>
<path d="M243.255 89.0224L245.648 93.9206H250.326L252.856 87.8085L247.788 83.8866L243.255 89.0224V89.0224Z" fill="#18441F"/>
<path d="M250.012 93.9206L252.957 110.729L256.574 100.72V100.72C256.93 97.3247 257.295 94.1753 257.626 91.5182L252.856 87.817L250.309 93.9291L250.012 93.9206Z" fill="white"/>
<path d="M226.073 83.8866L228.509 86.0089L240.394 92.2737L243.263 89.0225L247.796 83.8866L252.89 87.8085L257.372 93.8951C259.636 90.2688 261.559 86.4409 263.119 82.4605L256.497 76.1871L247.915 82.2313L231.633 74.2262L226.896 82.4435L226.073 83.8866Z" fill="url(#paint9_linear)"/>
<path d="M227.007 91.2041L239.698 114.702L245.903 93.9206H245.623L243.229 89.0224L239.282 94.7864L228.484 86.0089C228.076 87.418 227.592 89.2007 227.007 91.2041Z" fill="white"/>
<path d="M174.825 222.995C174.825 222.995 168.28 236.739 169.053 238.878C169.825 241.017 181.141 246.518 181.141 246.518V235.075C181.141 235.075 185.513 233.938 187.558 237.248C187.372 239.88 187.499 243.241 187.499 243.241C187.499 243.241 192.066 239.124 191.285 234.753C190.779 232.024 189.896 229.378 188.662 226.892L174.825 222.995Z" fill="url(#paint10_linear)"/>
<path d="M148.543 238.199L147.482 252.868C147.246 256.259 148.872 259.511 151.727 261.357L184.061 282.206L188.738 262.189L148.543 238.199Z" fill="#53383D"/>
<path d="M199.961 262.172L198.535 303.683L188.738 306.017V262.172H199.961V262.172Z" fill="#361F22"/>
<path d="M188.738 287.019L150.156 263.046V275.415C150.154 277.276 151.032 279.03 152.525 280.143L188.738 306L188.738 287.019Z" fill="#53383D"/>
<path d="M207.236 148.997C197.991 168.216 195.895 205.321 190.394 228.063L172.075 222.97C172.075 222.97 172.771 180.05 177.474 163.055C182.525 144.769 193.314 97.6048 197.991 92.9273C200.25 90.6693 213.314 84.6676 219.171 83.6744L223.526 145.533C225.351 160.075 221.285 242.46 221.285 242.46L206.005 237.656C202.642 236.596 200.504 233.298 200.912 229.795C202.89 213.191 208.042 166.858 207.236 148.997Z" fill="url(#paint11_linear)"/>
<path d="M211.54 118.089L223.586 183.912C227.066 157.206 226.981 106.009 226.981 91.2295C226.981 89.1158 228.085 87.418 228.484 86.0088L226.047 83.8866L226.896 82.4604C224.587 82.6981 222.83 83.0971 219.171 83.6998L213.586 106.985L217.974 112.825L211.54 118.089Z" fill="url(#paint12_linear)"/>
<path d="M244.579 139.973C243.069 139.973 241.845 138.749 241.845 137.24C241.845 135.73 243.069 134.506 244.579 134.506C246.089 134.506 247.312 135.73 247.312 137.24C247.312 138.749 246.089 139.973 244.579 139.973Z" fill="url(#paint13_radial)"/>
<path d="M244.188 155.457C242.679 155.457 241.455 154.233 241.455 152.724C241.455 151.214 242.679 149.99 244.188 149.99C245.698 149.99 246.922 151.214 246.922 152.724C246.922 154.233 245.698 155.457 244.188 155.457Z" fill="url(#paint14_radial)"/>
<path d="M243.255 179.073C241.745 179.073 240.521 177.85 240.521 176.34C240.521 174.83 241.745 173.607 243.255 173.607C244.764 173.607 245.988 174.83 245.988 176.34C245.988 177.85 244.764 179.073 243.255 179.073Z" fill="url(#paint15_radial)"/>
<path d="M174.757 281.357L180.182 284.532V275.024L174.757 271.858V281.357V281.357Z" fill="#361F22"/>
<path d="M155.224 269.914L160.648 273.08V263.581L155.224 260.406V269.914V269.914Z" fill="#361F22"/>
<path opacity="0.5" d="M264.273 35.4741C264.273 35.4741 261.879 32.8086 259.01 35.8221" stroke="#F6F6F6" stroke-width="1.38" stroke-linecap="round"/>
<path opacity="0.6" d="M243.738 39.014L233.144 36.6795" stroke="#F6F6F6" stroke-width="2.75" stroke-linecap="round"/>
<path opacity="0.5" d="M252.253 47.4859C248.179 47.4859 244.876 44.1832 244.876 40.109C244.876 36.0349 248.179 32.7321 252.253 32.7321C256.327 32.7321 259.63 36.0349 259.63 40.109C259.63 44.1832 256.327 47.4859 252.253 47.4859Z" fill="url(#paint16_linear)"/>
<path opacity="0.5" d="M270.844 46.1701C267.027 46.1701 263.934 43.0764 263.934 39.2601C263.934 35.4438 267.027 32.3501 270.844 32.3501C274.66 32.3501 277.754 35.4438 277.754 39.2601C277.754 43.0764 274.66 46.1701 270.844 46.1701Z" fill="url(#paint17_linear)"/>
<path fill-rule="evenodd" clip-rule="evenodd" d="M270.012 114.005L274.095 119.557C274.095 119.557 264.978 164.354 258.195 180.279C258.263 180.899 258.339 181.51 258.441 182.078C258.543 182.792 258.671 183.496 258.823 184.218C260.098 190.016 261.949 195.673 264.35 201.102C266.115 205.217 267.705 219.1 268.997 230.376C269.941 238.617 270.725 245.466 271.302 246.094C276.449 244.052 281.376 241.492 286.005 238.454C288.295 236.986 289.756 234.521 289.944 231.807C288.051 207.741 286.599 198.496 286.599 198.496C286.599 198.496 313.781 181.722 316.514 175.873C319.248 170.024 298.399 96.323 290.615 91.2296C285.895 88.1736 275.02 84.2432 268.764 83.2245L276.141 108.742L270.012 114.005ZM283.721 146.679L292.007 168.114L283.679 176.34L283.721 146.679Z" fill="url(#paint18_linear)"/>
<path d="M276.565 183.912C276.565 183.912 268.399 182.155 264.57 181.06C259.851 182.503 268.815 187.121 268.815 187.121H263.407C263.407 187.121 256.973 181.747 254.638 184.362C252.304 186.977 258.484 199.252 261.65 200.72C264.817 202.189 283.721 199.404 283.721 199.404C283.721 199.404 282.703 189.022 276.565 183.912Z" fill="url(#paint19_linear)"/>
<defs>
<linearGradient id="paint0_linear" x1="222.431" y1="377.162" x2="208.721" y2="377.162" gradientUnits="userSpaceOnUse">
<stop stop-color="#753200"/>
<stop offset="1" stop-color="#A04400"/>
</linearGradient>
<linearGradient id="paint1_linear" x1="253.178" y1="398.45" x2="238.679" y2="398.45" gradientUnits="userSpaceOnUse">
<stop stop-color="#753200"/>
<stop offset="1" stop-color="#A04400"/>
</linearGradient>
<linearGradient id="paint2_linear" x1="229.326" y1="39.7941" x2="223.894" y2="40.3616" gradientUnits="userSpaceOnUse">
<stop stop-color="#753200"/>
<stop offset="1" stop-color="#A04400"/>
</linearGradient>
<linearGradient id="paint3_linear" x1="290.901" y1="98.1128" x2="244.963" y2="91.2902" gradientUnits="userSpaceOnUse">
<stop stop-color="#753200"/>
<stop offset="1" stop-color="#A04400"/>
</linearGradient>
<linearGradient id="paint4_linear" x1="251.202" y1="38.7986" x2="231.079" y2="20.8879" gradientUnits="userSpaceOnUse">
<stop stop-color="#A04400" stop-opacity="0.01"/>
<stop offset="0.18" stop-color="#9A4100" stop-opacity="0.14"/>
<stop offset="0.52" stop-color="#8A3B00" stop-opacity="0.52"/>
<stop offset="0.9" stop-color="#753200"/>
</linearGradient>
<linearGradient id="paint5_linear" x1="241.318" y1="48.4385" x2="260.027" y2="69.8495" gradientUnits="userSpaceOnUse">
<stop stop-color="#A04400"/>
<stop offset="1" stop-color="#753200"/>
</linearGradient>
<linearGradient id="paint6_linear" x1="228.317" y1="40.8267" x2="231.803" y2="41.6259" gradientUnits="userSpaceOnUse">
<stop stop-color="#753200"/>
<stop offset="1" stop-color="#A04400"/>
</linearGradient>
<linearGradient id="paint7_linear" x1="236.326" y1="34.5454" x2="276.017" y2="34.6436" gradientUnits="userSpaceOnUse">
<stop offset="0.09" stop-color="#45993B"/>
<stop offset="0.28125" stop-color="#45993B"/>
<stop offset="1" stop-color="#1E4F28"/>
</linearGradient>
<linearGradient id="paint8_linear" x1="271.302" y1="211.022" x2="207.143" y2="211.022" gradientUnits="userSpaceOnUse">
<stop stop-color="#1E4F28"/>
<stop offset="0.39" stop-color="#45993B"/>
<stop offset="1" stop-color="#69A03D"/>
</linearGradient>
<linearGradient id="paint9_linear" x1="263.085" y1="93.8988" x2="226.073" y2="93.8988" gradientUnits="userSpaceOnUse">
<stop stop-color="#F0F2F5"/>
<stop offset="0.99" stop-color="#F5F7F8"/>
</linearGradient>
<linearGradient id="paint10_linear" x1="149.837" y1="210.04" x2="193.669" y2="212.309" gradientUnits="userSpaceOnUse">
<stop stop-color="#753200"/>
<stop offset="1" stop-color="#A04400"/>
</linearGradient>
<linearGradient id="paint11_linear" x1="224.002" y1="242.48" x2="172.075" y2="242.48" gradientUnits="userSpaceOnUse">
<stop stop-color="#1E4F28"/>
<stop offset="0.39" stop-color="#45993B"/>
</linearGradient>
<linearGradient id="paint12_linear" x1="247.303" y1="450.108" x2="143.794" y2="449.189" gradientUnits="userSpaceOnUse">
<stop stop-color="#1E4F28"/>
<stop offset="0.39" stop-color="#45993B"/>
<stop offset="1" stop-color="#69A03D"/>
</linearGradient>
<radialGradient id="paint13_radial" cx="0" cy="0" r="1" gradientUnits="userSpaceOnUse" gradientTransform="translate(244.579 137.24) rotate(180) scale(5.21222)">
<stop offset="0.09" stop-color="#45993B"/>
<stop offset="1" stop-color="#1E4F28"/>
</radialGradient>
<radialGradient id="paint14_radial" cx="0" cy="0" r="1" gradientUnits="userSpaceOnUse" gradientTransform="translate(244.188 152.724) rotate(180) scale(5.21222)">
<stop offset="0.09" stop-color="#45993B"/>
<stop offset="1" stop-color="#1E4F28"/>
</radialGradient>
<radialGradient id="paint15_radial" cx="0" cy="0" r="1" gradientUnits="userSpaceOnUse" gradientTransform="translate(243.255 176.34) rotate(180) scale(5.21222)">
<stop offset="0.09" stop-color="#45993B"/>
<stop offset="1" stop-color="#1E4F28"/>
</radialGradient>
<linearGradient id="paint16_linear" x1="259.621" y1="47.4817" x2="244.876" y2="47.4817" gradientUnits="userSpaceOnUse">
<stop stop-color="#F0F2F5"/>
<stop offset="0.99" stop-color="#F5F7F8"/>
</linearGradient>
<linearGradient id="paint17_linear" x1="277.754" y1="46.1701" x2="263.934" y2="46.1701" gradientUnits="userSpaceOnUse">
<stop stop-color="#F0F2F5"/>
<stop offset="0.99" stop-color="#F5F7F8"/>
</linearGradient>
<linearGradient id="paint18_linear" x1="231.48" y1="124.689" x2="296.749" y2="114.289" gradientUnits="userSpaceOnUse">
<stop offset="0.0260417" stop-color="#204F1F"/>
<stop offset="0.880208" stop-color="#358434"/>
</linearGradient>
<linearGradient id="paint19_linear" x1="283.721" y1="201.147" x2="254.12" y2="201.147" gradientUnits="userSpaceOnUse">
<stop stop-color="#753200"/>
<stop offset="1" stop-color="#A04400"/>
</linearGradient>
</defs>
</svg>
