<svg width="370" height="428" viewBox="0 0 370 428" fill="none" xmlns="http://www.w3.org/2000/svg">
<path d="M115.961 160.475C115.961 158.604 114.358 157 112.487 157C110.616 157 109.012 158.604 109.012 160.475C109.012 162.346 110.616 163.95 112.487 163.95C114.358 163.95 115.961 162.346 115.961 160.475Z" fill="url(#paint0_linear)"/>
<path d="M115.961 198.03C115.961 196.159 114.358 194.555 112.487 194.555C110.616 194.555 109.012 196.159 109.012 198.03C109.012 199.901 110.616 201.505 112.487 201.505C114.358 201.505 115.961 200.035 115.961 198.03Z" fill="url(#paint1_linear)"/>
<path d="M115.961 235.719C115.961 233.848 114.358 232.244 112.487 232.244C110.616 232.244 109.012 233.848 109.012 235.719C109.012 237.59 110.616 239.193 112.487 239.193C114.358 239.193 115.961 237.59 115.961 235.719Z" fill="url(#paint2_linear)"/>
<path d="M115.961 273.274C115.961 271.403 114.358 269.799 112.487 269.799C110.616 269.799 109.012 271.403 109.012 273.274C109.012 275.145 110.616 276.748 112.487 276.748C114.358 276.748 115.961 275.145 115.961 273.274Z" fill="url(#paint3_linear)"/>
<path d="M115.961 310.829C115.961 308.958 114.358 307.354 112.487 307.354C110.616 307.354 109.012 308.958 109.012 310.829C109.012 312.7 110.616 314.303 112.487 314.303C114.358 314.303 115.961 312.833 115.961 310.829Z" fill="url(#paint4_linear)"/>
<path d="M115.961 348.517C115.961 346.646 114.358 345.042 112.487 345.042C110.616 345.042 109.012 346.646 109.012 348.517C109.012 350.388 110.616 351.992 112.487 351.992C114.358 351.992 115.961 350.388 115.961 348.517Z" fill="url(#paint5_linear)"/>
<path d="M115.961 386.072C115.961 384.201 114.358 382.598 112.487 382.598C110.616 382.598 109.012 384.201 109.012 386.072C109.012 387.943 110.616 389.547 112.487 389.547C114.358 389.547 115.961 387.943 115.961 386.072Z" fill="url(#paint6_linear)"/>
<path d="M109.012 423.761C109.012 425.632 110.616 427.236 112.487 427.236C114.358 427.236 115.961 425.632 115.961 423.761C115.961 421.89 114.358 420.286 112.487 420.286C110.616 420.286 109.012 421.756 109.012 423.761Z" fill="url(#paint7_linear)"/>
<path d="M89.9001 160.475C89.9001 158.604 88.43 157 86.559 157C84.6879 157 83.0841 158.604 83.0841 160.475C83.0841 162.346 84.6879 163.95 86.559 163.95C88.43 163.95 89.9001 162.346 89.9001 160.475Z" fill="url(#paint8_linear)"/>
<path d="M89.9001 198.03C89.9001 196.159 88.2964 194.555 86.4253 194.555C84.5542 194.555 82.9505 196.159 82.9505 198.03C82.9505 199.901 84.5542 201.505 86.4253 201.505C88.43 201.505 89.9001 200.035 89.9001 198.03Z" fill="url(#paint9_linear)"/>
<path d="M89.9001 235.719C89.9001 233.848 88.2964 232.244 86.4253 232.244C84.5542 232.244 82.9505 233.848 82.9505 235.719C82.9505 237.59 84.5542 239.193 86.4253 239.193C88.43 239.193 89.9001 237.59 89.9001 235.719Z" fill="url(#paint10_linear)"/>
<path d="M89.9001 273.274C89.9001 271.403 88.2964 269.799 86.4253 269.799C84.5542 269.799 82.9505 271.403 82.9505 273.274C82.9505 275.145 84.5542 276.748 86.4253 276.748C88.43 276.748 89.9001 275.145 89.9001 273.274Z" fill="url(#paint11_linear)"/>
<path d="M89.9001 310.829C89.9001 308.958 88.2964 307.354 86.4253 307.354C84.5542 307.354 82.9505 308.958 82.9505 310.829C82.9505 312.7 84.5542 314.303 86.4253 314.303C88.43 314.303 89.9001 312.833 89.9001 310.829Z" fill="url(#paint12_linear)"/>
<path d="M89.9001 348.517C89.9001 346.646 88.2964 345.042 86.4253 345.042C84.5542 345.042 82.9505 346.646 82.9505 348.517C82.9505 350.388 84.5542 351.992 86.4253 351.992C88.43 351.992 89.9001 350.388 89.9001 348.517Z" fill="url(#paint13_linear)"/>
<path d="M89.9001 386.072C89.9001 384.201 88.2964 382.598 86.4253 382.598C84.5542 382.598 82.9505 384.201 82.9505 386.072C82.9505 387.943 84.5542 389.547 86.4253 389.547C88.43 389.547 89.9001 387.943 89.9001 386.072Z" fill="url(#paint14_linear)"/>
<path d="M89.9001 423.761C89.9001 421.89 88.2964 420.286 86.4253 420.286C84.5542 420.286 82.9505 421.89 82.9505 423.761C82.9505 425.632 84.5542 427.236 86.4253 427.236C88.43 427.102 89.9001 425.632 89.9001 423.761Z" fill="url(#paint15_linear)"/>
<path d="M63.9724 160.475C63.9724 158.604 62.3686 157 60.4976 157C58.6265 157 57.0227 158.604 57.0227 160.475C57.0227 162.346 58.6265 163.95 60.4976 163.95C62.3686 163.95 63.9724 162.346 63.9724 160.475Z" fill="url(#paint16_linear)"/>
<path d="M63.9724 198.03C63.9724 196.159 62.3686 194.555 60.4976 194.555C58.6265 194.555 57.0227 196.159 57.0227 198.03C57.0227 199.901 58.6265 201.505 60.4976 201.505C62.3686 201.505 63.9724 200.035 63.9724 198.03Z" fill="url(#paint17_linear)"/>
<path d="M63.9724 235.719C63.9724 233.848 62.3686 232.244 60.4976 232.244C58.6265 232.244 57.0227 233.848 57.0227 235.719C57.0227 237.59 58.6265 239.193 60.4976 239.193C62.3686 239.193 63.9724 237.59 63.9724 235.719Z" fill="url(#paint18_linear)"/>
<path d="M63.9724 273.274C63.9724 271.403 62.3686 269.799 60.4976 269.799C58.6265 269.799 57.0227 271.403 57.0227 273.274C57.0227 275.145 58.6265 276.748 60.4976 276.748C62.3686 276.748 63.9724 275.145 63.9724 273.274Z" fill="url(#paint19_linear)"/>
<path d="M63.9724 310.829C63.9724 308.958 62.3686 307.354 60.4976 307.354C58.6265 307.354 57.0227 308.958 57.0227 310.829C57.0227 312.7 58.6265 314.303 60.4976 314.303C62.3686 314.303 63.9724 312.833 63.9724 310.829Z" fill="url(#paint20_linear)"/>
<path d="M63.9724 348.517C63.9724 346.646 62.3686 345.042 60.4976 345.042C58.6265 345.042 57.0227 346.646 57.0227 348.517C57.0227 350.388 58.6265 351.992 60.4976 351.992C62.3686 351.992 63.9724 350.388 63.9724 348.517Z" fill="url(#paint21_linear)"/>
<path d="M63.9724 386.072C63.9724 384.201 62.3686 382.598 60.4976 382.598C58.6265 382.598 57.0227 384.201 57.0227 386.072C57.0227 387.943 58.6265 389.547 60.4976 389.547C62.3686 389.547 63.9724 387.943 63.9724 386.072Z" fill="url(#paint22_linear)"/>
<path d="M63.9724 423.761C63.9724 421.89 62.3686 420.286 60.4976 420.286C58.6265 420.286 57.0227 421.89 57.0227 423.761C57.0227 425.632 58.6265 427.236 60.4976 427.236C62.3686 427.102 63.9724 425.632 63.9724 423.761Z" fill="url(#paint23_linear)"/>
<path d="M37.9111 160.475C37.9111 158.604 36.441 157 34.4363 157C32.5652 157 30.9615 158.604 30.9615 160.475C30.9615 162.346 32.5652 163.95 34.4363 163.95C36.441 163.95 37.9111 162.346 37.9111 160.475Z" fill="url(#paint24_linear)"/>
<path d="M37.9111 198.03C37.9111 196.159 36.3074 194.555 34.4363 194.555C32.5652 194.555 30.9615 196.159 30.9615 198.03C30.9615 199.901 32.5652 201.505 34.4363 201.505C36.441 201.505 37.9111 200.035 37.9111 198.03Z" fill="url(#paint25_linear)"/>
<path d="M37.9111 235.719C37.9111 233.848 36.3074 232.244 34.4363 232.244C32.5652 232.244 30.9615 233.848 30.9615 235.719C30.9615 237.59 32.5652 239.193 34.4363 239.193C36.441 239.193 37.9111 237.59 37.9111 235.719Z" fill="url(#paint26_linear)"/>
<path d="M37.9111 273.274C37.9111 271.403 36.3074 269.799 34.4363 269.799C32.5652 269.799 30.9615 271.403 30.9615 273.274C30.9615 275.145 32.5652 276.748 34.4363 276.748C36.441 276.748 37.9111 275.145 37.9111 273.274Z" fill="url(#paint27_linear)"/>
<path d="M37.9111 310.829C37.9111 308.958 36.3074 307.354 34.4363 307.354C32.5652 307.354 30.9615 308.958 30.9615 310.829C30.9615 312.7 32.5652 314.303 34.4363 314.303C36.441 314.303 37.9111 312.833 37.9111 310.829Z" fill="url(#paint28_linear)"/>
<path d="M37.911 348.517C37.911 346.646 36.3072 345.042 34.4362 345.042C32.5651 345.042 30.9613 346.646 30.9613 348.517C30.9613 350.388 32.5651 351.992 34.4362 351.992C36.4409 351.992 37.911 350.388 37.911 348.517Z" fill="url(#paint29_linear)"/>
<path d="M37.911 386.072C37.911 384.201 36.3072 382.598 34.4362 382.598C32.5651 382.598 30.9613 384.201 30.9613 386.072C30.9613 387.943 32.5651 389.547 34.4362 389.547C36.4409 389.547 37.911 387.943 37.911 386.072Z" fill="url(#paint30_linear)"/>
<path d="M37.911 423.761C37.911 421.89 36.3072 420.286 34.4362 420.286C32.5651 420.286 30.9613 421.89 30.9613 423.761C30.9613 425.632 32.5651 427.236 34.4362 427.236C36.4409 427.102 37.911 425.632 37.911 423.761Z" fill="url(#paint31_linear)"/>
<mask id="mask0" mask-type="alpha" maskUnits="userSpaceOnUse" x="0" y="0" width="370" height="369">
<rect width="370" height="369" fill="#C4C4C4"/>
</mask>
<g mask="url(#mask0)">
<path d="M-15.9272 72.0923C4.55164 61.9484 27.4038 57.5652 50.1826 59.4121C72.9614 61.259 94.809 69.2664 113.386 82.577C131.963 95.8876 146.571 114 155.644 134.975C164.717 155.95 167.915 178.998 164.895 201.651C161.875 224.305 152.75 245.71 138.499 263.575C124.247 281.44 105.404 295.093 83.9889 303.072C62.5733 311.05 39.391 313.054 16.9241 308.869C-5.54294 304.683 -26.4486 294.466 -43.5545 279.311L-38.6768 273.806C-22.5695 288.076 -2.88427 297.697 18.2712 301.638C39.4266 305.579 61.2556 303.692 81.421 296.179C101.586 288.666 119.329 275.811 132.748 258.988C146.168 242.166 154.76 222.01 157.604 200.679C160.448 179.349 157.437 157.646 148.893 137.896C140.349 118.145 126.595 101.09 109.102 88.5562C91.6094 76.0226 71.0372 68.4827 49.5882 66.7436C28.1392 65.0045 6.62102 69.1318 -12.6624 78.6836L-15.9272 72.0923Z" fill="#FFCC00"/>
<path d="M-30.5748 42.5213C-4.73245 29.7206 24.1048 24.1895 52.8495 26.5201C81.5941 28.8507 109.164 38.9552 132.606 55.7519C156.049 72.5486 174.482 95.4049 185.932 121.874C197.381 148.342 201.417 177.427 197.605 206.013C193.794 234.599 182.28 261.61 164.296 284.154C146.311 306.699 122.534 323.927 95.5098 333.996C68.4854 344.064 39.2316 346.592 10.8803 341.311C-17.4709 336.029 -43.8518 323.136 -65.4378 304.012L-61.2114 299.241C-40.4906 317.599 -15.1671 329.975 12.0476 335.045C39.2624 340.115 67.3436 337.688 93.2847 328.023C119.226 318.358 142.05 301.82 159.313 280.18C176.577 258.539 187.629 232.61 191.288 205.17C194.946 177.73 191.073 149.812 180.082 124.404C169.091 98.9963 151.397 77.0562 128.894 60.9328C106.391 44.8094 79.9268 35.1099 52.3344 32.8727C24.742 30.6355 -2.93936 35.9449 -27.7459 48.2325L-30.5748 42.5213Z" fill="#3CDDA7"/>
</g>
<defs>
<linearGradient id="paint0_linear" x1="115.961" y1="160.475" x2="109.012" y2="160.475" gradientUnits="userSpaceOnUse">
<stop stop-color="#FFE600"/>
<stop offset="1" stop-color="#FFB800"/>
</linearGradient>
<linearGradient id="paint1_linear" x1="115.961" y1="198.03" x2="109.012" y2="198.03" gradientUnits="userSpaceOnUse">
<stop stop-color="#FFE600"/>
<stop offset="1" stop-color="#FFB800"/>
</linearGradient>
<linearGradient id="paint2_linear" x1="115.961" y1="235.719" x2="109.012" y2="235.719" gradientUnits="userSpaceOnUse">
<stop stop-color="#FFE600"/>
<stop offset="1" stop-color="#FFB800"/>
</linearGradient>
<linearGradient id="paint3_linear" x1="115.961" y1="273.274" x2="109.012" y2="273.274" gradientUnits="userSpaceOnUse">
<stop stop-color="#FFE600"/>
<stop offset="1" stop-color="#FFB800"/>
</linearGradient>
<linearGradient id="paint4_linear" x1="115.961" y1="310.829" x2="109.012" y2="310.829" gradientUnits="userSpaceOnUse">
<stop stop-color="#FFE600"/>
<stop offset="1" stop-color="#FFB800"/>
</linearGradient>
<linearGradient id="paint5_linear" x1="115.961" y1="348.517" x2="109.012" y2="348.517" gradientUnits="userSpaceOnUse">
<stop stop-color="#FFE600"/>
<stop offset="1" stop-color="#FFB800"/>
</linearGradient>
<linearGradient id="paint6_linear" x1="115.961" y1="386.072" x2="109.012" y2="386.072" gradientUnits="userSpaceOnUse">
<stop stop-color="#FFE600"/>
<stop offset="1" stop-color="#FFB800"/>
</linearGradient>
<linearGradient id="paint7_linear" x1="115.961" y1="423.761" x2="109.012" y2="423.761" gradientUnits="userSpaceOnUse">
<stop stop-color="#FFE600"/>
<stop offset="1" stop-color="#FFB800"/>
</linearGradient>
<linearGradient id="paint8_linear" x1="89.9001" y1="160.475" x2="83.0841" y2="160.475" gradientUnits="userSpaceOnUse">
<stop stop-color="#FFE600"/>
<stop offset="1" stop-color="#FFB800"/>
</linearGradient>
<linearGradient id="paint9_linear" x1="89.9001" y1="198.03" x2="82.9505" y2="198.03" gradientUnits="userSpaceOnUse">
<stop stop-color="#FFE600"/>
<stop offset="1" stop-color="#FFB800"/>
</linearGradient>
<linearGradient id="paint10_linear" x1="89.9001" y1="235.719" x2="82.9505" y2="235.719" gradientUnits="userSpaceOnUse">
<stop stop-color="#FFE600"/>
<stop offset="1" stop-color="#FFB800"/>
</linearGradient>
<linearGradient id="paint11_linear" x1="89.9001" y1="273.274" x2="82.9505" y2="273.274" gradientUnits="userSpaceOnUse">
<stop stop-color="#FFE600"/>
<stop offset="1" stop-color="#FFB800"/>
</linearGradient>
<linearGradient id="paint12_linear" x1="89.9001" y1="310.829" x2="82.9505" y2="310.829" gradientUnits="userSpaceOnUse">
<stop stop-color="#FFE600"/>
<stop offset="1" stop-color="#FFB800"/>
</linearGradient>
<linearGradient id="paint13_linear" x1="89.9001" y1="348.517" x2="82.9505" y2="348.517" gradientUnits="userSpaceOnUse">
<stop stop-color="#FFE600"/>
<stop offset="1" stop-color="#FFB800"/>
</linearGradient>
<linearGradient id="paint14_linear" x1="89.9001" y1="386.072" x2="82.9505" y2="386.072" gradientUnits="userSpaceOnUse">
<stop stop-color="#FFE600"/>
<stop offset="1" stop-color="#FFB800"/>
</linearGradient>
<linearGradient id="paint15_linear" x1="89.9001" y1="423.761" x2="82.9505" y2="423.761" gradientUnits="userSpaceOnUse">
<stop stop-color="#FFE600"/>
<stop offset="1" stop-color="#FFB800"/>
</linearGradient>
<linearGradient id="paint16_linear" x1="63.9724" y1="160.475" x2="57.0227" y2="160.475" gradientUnits="userSpaceOnUse">
<stop stop-color="#FFE600"/>
<stop offset="1" stop-color="#FFB800"/>
</linearGradient>
<linearGradient id="paint17_linear" x1="63.9724" y1="198.03" x2="57.0227" y2="198.03" gradientUnits="userSpaceOnUse">
<stop stop-color="#FFE600"/>
<stop offset="1" stop-color="#FFB800"/>
</linearGradient>
<linearGradient id="paint18_linear" x1="63.9724" y1="235.719" x2="57.0227" y2="235.719" gradientUnits="userSpaceOnUse">
<stop stop-color="#FFE600"/>
<stop offset="1" stop-color="#FFB800"/>
</linearGradient>
<linearGradient id="paint19_linear" x1="63.9724" y1="273.274" x2="57.0227" y2="273.274" gradientUnits="userSpaceOnUse">
<stop stop-color="#FFE600"/>
<stop offset="1" stop-color="#FFB800"/>
</linearGradient>
<linearGradient id="paint20_linear" x1="63.9724" y1="310.829" x2="57.0227" y2="310.829" gradientUnits="userSpaceOnUse">
<stop stop-color="#FFE600"/>
<stop offset="1" stop-color="#FFB800"/>
</linearGradient>
<linearGradient id="paint21_linear" x1="63.9724" y1="348.517" x2="57.0227" y2="348.517" gradientUnits="userSpaceOnUse">
<stop stop-color="#FFE600"/>
<stop offset="1" stop-color="#FFB800"/>
</linearGradient>
<linearGradient id="paint22_linear" x1="63.9724" y1="386.072" x2="57.0227" y2="386.072" gradientUnits="userSpaceOnUse">
<stop stop-color="#FFE600"/>
<stop offset="1" stop-color="#FFB800"/>
</linearGradient>
<linearGradient id="paint23_linear" x1="63.9724" y1="423.761" x2="57.0227" y2="423.761" gradientUnits="userSpaceOnUse">
<stop stop-color="#FFE600"/>
<stop offset="1" stop-color="#FFB800"/>
</linearGradient>
<linearGradient id="paint24_linear" x1="37.9111" y1="160.475" x2="30.9615" y2="160.475" gradientUnits="userSpaceOnUse">
<stop stop-color="#FFE600"/>
<stop offset="1" stop-color="#FFB800"/>
</linearGradient>
<linearGradient id="paint25_linear" x1="37.9111" y1="198.03" x2="30.9615" y2="198.03" gradientUnits="userSpaceOnUse">
<stop stop-color="#FFE600"/>
<stop offset="1" stop-color="#FFB800"/>
</linearGradient>
<linearGradient id="paint26_linear" x1="37.9111" y1="235.719" x2="30.9615" y2="235.719" gradientUnits="userSpaceOnUse">
<stop stop-color="#FFE600"/>
<stop offset="1" stop-color="#FFB800"/>
</linearGradient>
<linearGradient id="paint27_linear" x1="37.9111" y1="273.274" x2="30.9615" y2="273.274" gradientUnits="userSpaceOnUse">
<stop stop-color="#FFE600"/>
<stop offset="1" stop-color="#FFB800"/>
</linearGradient>
<linearGradient id="paint28_linear" x1="37.9111" y1="310.829" x2="30.9615" y2="310.829" gradientUnits="userSpaceOnUse">
<stop stop-color="#FFE600"/>
<stop offset="1" stop-color="#FFB800"/>
</linearGradient>
<linearGradient id="paint29_linear" x1="37.911" y1="348.517" x2="30.9613" y2="348.517" gradientUnits="userSpaceOnUse">
<stop stop-color="#FFE600"/>
<stop offset="1" stop-color="#FFB800"/>
</linearGradient>
<linearGradient id="paint30_linear" x1="37.911" y1="386.072" x2="30.9613" y2="386.072" gradientUnits="userSpaceOnUse">
<stop stop-color="#FFE600"/>
<stop offset="1" stop-color="#FFB800"/>
</linearGradient>
<linearGradient id="paint31_linear" x1="37.911" y1="423.761" x2="30.9613" y2="423.761" gradientUnits="userSpaceOnUse">
<stop stop-color="#FFE600"/>
<stop offset="1" stop-color="#FFB800"/>
</linearGradient>
</defs>
</svg>
