<svg width="223" height="97" viewBox="0 0 223 97" fill="none" xmlns="http://www.w3.org/2000/svg">
<path d="M218.555 97C220.69 97 222.521 95.1698 222.521 93.0346C222.521 90.8994 220.69 89.0692 218.555 89.0692C216.42 89.0692 214.59 90.8994 214.59 93.0346C214.59 95.1698 216.267 97 218.555 97Z" fill="url(#paint0_linear)"/>
<path d="M175.546 97C177.681 97 179.511 95.1698 179.511 93.0346C179.511 90.8994 177.681 89.0692 175.546 89.0692C173.41 89.0692 171.58 90.8994 171.58 93.0346C171.58 95.1698 173.41 97 175.546 97Z" fill="url(#paint1_linear)"/>
<path d="M132.689 97C134.824 97 136.654 95.1698 136.654 93.0346C136.654 90.8994 134.824 89.0692 132.689 89.0692C130.553 89.0692 128.723 90.8994 128.723 93.0346C128.723 95.1698 130.553 97 132.689 97Z" fill="url(#paint2_linear)"/>
<path d="M89.8317 97C91.9669 97 93.7971 95.1698 93.7971 93.0346C93.7971 90.8994 91.9669 89.0692 89.8317 89.0692C87.6965 89.0692 85.8663 90.8994 85.8663 93.0346C85.8663 95.1698 87.544 97 89.8317 97Z" fill="#FFCC00"/>
<path d="M46.8224 97C48.9576 97 50.7878 95.1698 50.7878 93.0346C50.7878 90.8994 48.9576 89.0692 46.8224 89.0692C44.6872 89.0692 42.857 90.8994 42.857 93.0346C42.857 95.1698 44.6872 97 46.8224 97Z" fill="#FFCC00"/>
<path d="M3.96527 97C6.10049 97 7.93066 95.1698 7.93066 93.0346C7.93066 90.8994 6.10049 89.0692 3.96527 89.0692C1.83005 89.0692 -0.000148878 90.8994 -0.000149065 93.0346C-0.000149252 95.1698 1.83005 97 3.96527 97Z" fill="#FFCC00"/>
<path d="M218.555 67.2595C220.69 67.2595 222.521 65.4293 222.521 63.2941C222.521 61.1588 220.69 59.3286 218.555 59.3286C216.42 59.3286 214.59 61.1588 214.59 63.2941C214.59 65.5818 216.267 67.2595 218.555 67.2595Z" fill="url(#paint3_linear)"/>
<path d="M175.546 67.2595C177.681 67.2595 179.511 65.4293 179.511 63.2941C179.511 61.1588 177.681 59.3286 175.546 59.3286C173.41 59.3286 171.58 61.1588 171.58 63.2941C171.58 65.5818 173.41 67.2595 175.546 67.2595Z" fill="url(#paint4_linear)"/>
<path d="M132.689 67.2594C134.824 67.2594 136.654 65.4292 136.654 63.294C136.654 61.1588 134.824 59.3286 132.689 59.3286C130.553 59.3286 128.723 61.1588 128.723 63.294C128.723 65.5817 130.553 67.2594 132.689 67.2594Z" fill="url(#paint5_linear)"/>
<path d="M89.8317 67.2594C91.9669 67.2594 93.7971 65.4292 93.7971 63.294C93.7971 61.1588 91.9669 59.3286 89.8317 59.3286C87.6965 59.3286 85.8663 61.1588 85.8663 63.294C85.8663 65.5817 87.544 67.2594 89.8317 67.2594Z" fill="#FFCC00"/>
<path d="M46.8224 67.2594C48.9576 67.2594 50.7878 65.4292 50.7878 63.294C50.7878 61.1588 48.9576 59.3286 46.8224 59.3286C44.6872 59.3286 42.857 61.1588 42.857 63.294C42.857 65.5817 44.6872 67.2594 46.8224 67.2594Z" fill="#FFCC00"/>
<path d="M218.555 37.6714C220.69 37.6714 222.521 35.8412 222.521 33.706C222.521 31.5708 220.69 29.7406 218.555 29.7406C216.42 29.7406 214.59 31.5708 214.59 33.706C214.59 35.8412 216.267 37.6714 218.555 37.6714Z" fill="url(#paint6_linear)"/>
<path d="M175.546 37.6714C177.681 37.6714 179.511 35.8412 179.511 33.706C179.511 31.5708 177.681 29.7406 175.546 29.7406C173.41 29.7406 171.58 31.5708 171.58 33.706C171.58 35.8412 173.41 37.6714 175.546 37.6714Z" fill="url(#paint7_linear)"/>
<path d="M132.689 37.6714C134.824 37.6714 136.654 35.8412 136.654 33.706C136.654 31.5708 134.824 29.7406 132.689 29.7406C130.553 29.7406 128.723 31.5708 128.723 33.706C128.723 35.8412 130.553 37.6714 132.689 37.6714Z" fill="#FFCC00"/>
<path d="M89.8317 37.6714C91.9669 37.6714 93.7971 35.8412 93.7971 33.706C93.7971 31.5708 91.9669 29.7406 89.8317 29.7406C87.6965 29.7406 85.8663 31.5708 85.8663 33.706C85.8663 35.8412 87.544 37.6714 89.8317 37.6714Z" fill="#FFCC00"/>
<path d="M218.555 7.93085C220.69 7.93085 222.521 6.10066 222.521 3.96544C222.521 1.83022 220.69 3.35338e-05 218.555 3.33471e-05C216.42 3.31605e-05 214.59 1.83022 214.59 3.96544C214.59 6.25318 216.267 7.93085 218.555 7.93085Z" fill="url(#paint8_linear)"/>
<path d="M175.546 7.93085C177.681 7.93085 179.511 6.10066 179.511 3.96544C179.511 1.83022 177.681 3.35338e-05 175.546 3.33471e-05C173.41 3.31605e-05 171.58 1.83022 171.58 3.96544C171.58 6.25318 173.41 7.93085 175.546 7.93085Z" fill="url(#paint9_linear)"/>
<path d="M132.689 7.93085C134.824 7.93085 136.654 6.10066 136.654 3.96544C136.654 1.83022 134.824 3.35338e-05 132.689 3.33471e-05C130.553 3.31605e-05 128.723 1.83022 128.723 3.96544C128.723 6.25318 130.553 7.93085 132.689 7.93085Z" fill="#FFCC00"/>
<path d="M89.8317 7.93079C91.9669 7.93079 93.7971 6.1006 93.7971 3.96538C93.7971 1.83016 91.9669 -2.75014e-05 89.8317 -2.7688e-05C87.6965 -2.78747e-05 85.8663 1.83016 85.8663 3.96538C85.8663 6.25311 87.544 7.93079 89.8317 7.93079Z" fill="#FFCC00"/>
<defs>
<linearGradient id="paint0_linear" x1="218.555" y1="97" x2="218.555" y2="89.0692" gradientUnits="userSpaceOnUse">
<stop stop-color="#5EE3C3"/>
<stop offset="1" stop-color="#60B035"/>
</linearGradient>
<linearGradient id="paint1_linear" x1="175.546" y1="97" x2="175.546" y2="89.0692" gradientUnits="userSpaceOnUse">
<stop stop-color="#5EE3C3"/>
<stop offset="1" stop-color="#60B035"/>
</linearGradient>
<linearGradient id="paint2_linear" x1="132.689" y1="97" x2="132.689" y2="89.0692" gradientUnits="userSpaceOnUse">
<stop stop-color="#5EE3C3"/>
<stop offset="1" stop-color="#60B035"/>
</linearGradient>
<linearGradient id="paint3_linear" x1="218.555" y1="67.2595" x2="218.555" y2="59.3286" gradientUnits="userSpaceOnUse">
<stop stop-color="#5EE3C3"/>
<stop offset="1" stop-color="#60B035"/>
</linearGradient>
<linearGradient id="paint4_linear" x1="175.546" y1="67.2595" x2="175.546" y2="59.3286" gradientUnits="userSpaceOnUse">
<stop stop-color="#5EE3C3"/>
<stop offset="1" stop-color="#60B035"/>
</linearGradient>
<linearGradient id="paint5_linear" x1="132.689" y1="67.2594" x2="132.689" y2="59.3286" gradientUnits="userSpaceOnUse">
<stop stop-color="#5EE3C3"/>
<stop offset="1" stop-color="#60B035"/>
</linearGradient>
<linearGradient id="paint6_linear" x1="218.555" y1="37.6714" x2="218.555" y2="29.7406" gradientUnits="userSpaceOnUse">
<stop stop-color="#5EE3C3"/>
<stop offset="1" stop-color="#60B035"/>
</linearGradient>
<linearGradient id="paint7_linear" x1="175.546" y1="37.6714" x2="175.546" y2="29.7406" gradientUnits="userSpaceOnUse">
<stop stop-color="#5EE3C3"/>
<stop offset="1" stop-color="#60B035"/>
</linearGradient>
<linearGradient id="paint8_linear" x1="218.555" y1="7.93085" x2="218.555" y2="3.35088e-05" gradientUnits="userSpaceOnUse">
<stop stop-color="#5EE3C3"/>
<stop offset="1" stop-color="#60B035"/>
</linearGradient>
<linearGradient id="paint9_linear" x1="175.546" y1="7.93085" x2="175.546" y2="3.35088e-05" gradientUnits="userSpaceOnUse">
<stop stop-color="#5EE3C3"/>
<stop offset="1" stop-color="#60B035"/>
</linearGradient>
</defs>
</svg>
