<svg width="1440" height="74" viewBox="0 0 1440 74" fill="none" xmlns="http://www.w3.org/2000/svg">
<path d="M0 58.4671V73.6201H1440V28.6201C1091.55 83.1544 859.732 65.2264 640.226 48.2501C442.306 32.9433 254.391 18.4103 0 58.4671Z" fill="#D2EDC4"/>
<path d="M0 57.9422V56.9148C208.216 7.87614 426.827 25.0726 654.802 43.0056C675.305 44.6184 695.884 46.2372 716.538 47.8143C946.308 65.3591 1192.08 59.2608 1440 0V1.02815C1192.03 60.2682 946.229 66.356 716.462 48.8114C695.817 47.235 675.248 45.6171 654.757 44.0053L654.751 44.0049C426.657 26.0637 208.124 8.8746 0 57.9422Z" fill="#D2EDC4"/>
</svg>
