<svg width="254" height="205" viewBox="0 0 254 205" fill="none" xmlns="http://www.w3.org/2000/svg">
<path d="M167.132 114.776C161.774 117.988 152.227 122.012 142.471 117.876L136.165 115.203L148.802 101.043C138.718 89.9294 133.139 75.4584 133.154 60.4546C133.17 45.4509 138.778 30.9913 148.885 19.8982C158.993 8.80512 172.873 1.87479 187.817 0.459907C202.761 -0.954971 217.696 3.24716 229.707 12.2461C241.718 21.245 249.943 34.3949 252.777 49.1289C255.611 63.8629 252.849 79.1236 245.032 91.9322C237.215 104.741 224.903 114.178 210.499 118.402C196.095 122.626 180.633 121.333 167.132 114.776V114.776ZM142.919 60.4208C142.891 67.3372 144.295 74.1846 147.043 80.5322C149.792 86.8798 153.824 92.5903 158.887 97.3046L162.373 100.579L154.421 109.489C158.563 108.649 162.171 106.409 164 105.108L166.51 103.323L169.21 104.805C176.672 108.889 185.043 111.029 193.55 111.028C221.469 111.028 244.182 88.3261 244.182 60.4208C244.182 32.5157 221.469 9.81311 193.55 9.81311C165.632 9.81311 142.919 32.5157 142.919 60.4208V60.4208Z" fill="#3F3D56"/>
<path d="M138.01 60.4208C138.01 29.7611 162.876 4.90656 193.55 4.90656C224.225 4.90656 249.091 29.7611 249.091 60.4208C249.091 91.0805 224.225 115.935 193.55 115.935C184.215 115.949 175.028 113.599 166.846 109.106C163.007 111.836 153.641 117.282 144.388 113.36L155.526 100.88C149.989 95.6953 145.578 89.4285 142.564 82.4686C139.551 75.5088 138.001 68.0043 138.01 60.4208V60.4208Z" fill="#6AC33B"/>
<path opacity="0.1" d="M239.629 60.5412C239.629 31.5353 217.372 7.72948 188.998 5.24517C190.615 5.10353 192.252 5.02689 193.906 5.02689C224.581 5.02689 249.447 29.8815 249.447 60.5412C249.447 91.2009 224.581 116.055 193.906 116.055C192.254 116.055 190.621 115.978 189.005 115.836C217.376 113.349 239.629 89.5444 239.629 60.5412Z" fill="black"/>
<path d="M65.5631 191.897C51.6853 191.903 38.2269 187.142 27.4434 178.411C16.6599 169.679 9.2066 157.508 6.33265 143.938C3.45869 130.367 5.33871 116.221 11.6576 103.872C17.9765 91.5215 28.3503 81.7177 41.0405 76.1031C53.7307 70.4884 67.966 69.4041 81.3609 73.0318C94.7557 76.6596 106.496 84.779 114.614 96.0293C122.733 107.28 126.735 120.977 125.952 134.826C125.169 148.675 119.647 161.835 110.311 172.098L122.949 186.258L116.642 188.932C106.887 193.068 97.3401 189.043 91.9818 185.831C83.7469 189.821 74.7147 191.895 65.5631 191.897V191.897ZM65.5631 80.8684C37.6448 80.8684 14.9314 103.571 14.9314 131.476C14.9314 159.381 37.6448 182.084 65.5631 182.084C74.0706 182.085 82.4414 179.945 89.9037 175.861L92.6033 174.378L95.1133 176.163C96.9427 177.464 100.55 179.704 104.693 180.544L96.7404 171.634L100.226 168.36C105.289 163.646 109.322 157.935 112.07 151.587C114.818 145.24 116.223 138.393 116.195 131.476C116.195 103.571 93.4815 80.8684 65.5631 80.8684V80.8684Z" fill="#3F3D56"/>
<path d="M121.104 131.476C121.104 100.816 96.2375 75.9618 65.5633 75.9618C34.8891 75.9618 10.0227 100.816 10.0227 131.476C10.0227 162.136 34.8891 186.99 65.5633 186.99C74.8988 187.004 84.0858 184.655 92.2677 180.161C96.107 182.892 105.473 188.338 114.726 184.415L103.588 171.936C109.125 166.751 113.536 160.484 116.549 153.524C119.562 146.564 121.113 139.06 121.104 131.476Z" fill="#6AC33B"/>
<path opacity="0.1" d="M19.8405 131.196C19.8405 102.19 42.0978 78.384 70.4722 75.8997C68.8544 75.758 67.2179 75.6814 65.5633 75.6814C34.8891 75.6814 10.0227 100.536 10.0227 131.196C10.0227 161.855 34.8891 186.71 65.5633 186.71C67.2154 186.71 68.849 186.632 70.4644 186.491C42.0937 184.003 19.8405 160.199 19.8405 131.196Z" fill="black"/>
<path d="M206.589 42.784C202.955 36.6467 195.766 36.3607 195.766 36.3607C195.766 36.3607 188.76 35.4652 184.266 44.8124C180.077 53.5248 174.296 61.9367 183.335 63.9762L184.968 58.8967L185.979 64.3544C187.266 64.4469 188.557 64.469 189.847 64.4204C199.527 64.1081 208.746 64.5118 208.449 61.0398C208.055 56.4241 210.086 48.6893 206.589 42.784Z" fill="#2F2E41"/>
<path d="M182.819 96.5313C182.712 97.2064 182.557 97.8729 182.355 98.5259C182.128 99.165 181.777 99.7561 181.569 100.402C180.906 102.46 181.825 104.755 183.292 106.344C184.565 107.716 186.208 108.691 188.022 109.151C189.358 109.437 190.72 109.58 192.087 109.578C195.864 109.706 199.739 109.82 203.319 108.607C204.45 108.214 205.542 107.718 206.582 107.125C206.91 106.969 207.2 106.741 207.429 106.459C207.668 106.045 207.775 105.568 207.734 105.092C207.726 103.491 207.402 101.898 207.479 100.3C207.521 99.4139 207.687 98.529 207.605 97.6461C207.493 96.6434 207.072 95.7001 206.402 94.9453C205.732 94.1905 204.845 93.6611 203.863 93.4296C202.847 93.2116 201.794 93.3304 200.76 93.4298C198.077 93.6875 195.382 93.8079 192.686 93.7906C189.931 93.7731 187.194 93.3528 184.453 93.3089C183.643 93.2959 183.659 93.5457 183.401 94.3297C183.163 95.0514 182.969 95.7865 182.819 96.5313V96.5313Z" fill="#2F2E41"/>
<path d="M190.636 57.0064C190.504 57.6991 190.361 58.4172 189.944 58.9865C189.465 59.6415 188.684 60.0158 188.168 60.6426C187.392 61.5861 187.348 62.9138 187.344 64.1352C187.341 65.2604 187.364 66.4605 187.992 67.3945C188.439 67.9747 188.993 68.4633 189.625 68.8337C191.98 70.4195 194.523 72.0337 197.362 72.086C198.538 72.1077 199.799 71.8041 200.573 70.9187C200.907 70.5028 201.17 70.0343 201.35 69.5324C202.076 67.7442 202.516 65.853 202.654 63.9282C202.758 63.0233 202.674 62.1066 202.406 61.2361C202.061 60.2751 201.364 59.4845 200.903 58.5734C200.358 57.49 200.159 56.2657 200.332 55.0657C200.355 54.9812 200.348 54.8913 200.312 54.8115C200.274 54.7687 200.227 54.7353 200.174 54.7139C200.121 54.6924 200.064 54.6835 200.007 54.6878L194.379 54.2828C193.854 54.2568 193.333 54.1971 192.816 54.1042C192.513 54.0425 191.711 53.6118 191.422 53.7263C190.886 53.9383 190.746 56.4319 190.636 57.0064Z" fill="#A0616A"/>
<path opacity="0.1" d="M190.636 57.1819C190.504 57.8747 190.361 58.5928 189.944 59.1621C189.465 59.8171 188.684 60.1913 188.168 60.8182C187.392 61.7617 187.348 63.0894 187.344 64.3108C187.341 65.436 187.364 66.6361 187.992 67.5701C188.439 68.1503 188.993 68.6389 189.625 69.0093C191.979 70.5951 194.523 72.2093 197.362 72.2616C198.538 72.2833 199.799 71.9797 200.573 71.0942C200.907 70.6783 201.17 70.2099 201.35 69.7079C202.076 67.9197 202.516 66.0286 202.654 64.1038C202.759 63.1989 202.674 62.2822 202.406 61.4116C202.061 60.4507 201.364 59.66 200.903 58.7489C200.358 57.6656 200.159 56.4413 200.332 55.2412C200.355 55.1567 200.348 55.0669 200.312 54.987C200.274 54.9443 200.227 54.9109 200.174 54.8894C200.121 54.868 200.064 54.8591 200.007 54.8634L194.379 54.4584C193.854 54.4324 193.333 54.3727 192.816 54.2797C192.513 54.2181 191.711 53.7874 191.422 53.9019C190.886 54.1139 190.746 56.6074 190.636 57.1819Z" fill="black"/>
<path d="M196.018 57.7607C200.578 57.7607 204.275 54.0656 204.275 49.5075C204.275 44.9494 200.578 41.2543 196.018 41.2543C191.458 41.2543 187.761 44.9494 187.761 49.5075C187.761 54.0656 191.458 57.7607 196.018 57.7607Z" fill="#A0616A"/>
<path d="M191.794 67.9926C192.202 68.4648 192.694 68.8575 193.245 69.151C193.819 69.3882 194.435 69.5055 195.057 69.4958C196.545 69.5377 198.159 69.2651 199.194 68.1955C200.529 66.8168 200.485 64.593 201.531 62.9845C201.615 62.8387 201.73 62.713 201.868 62.616C202.043 62.5205 202.242 62.475 202.441 62.4842C203.763 62.4719 204.914 63.3284 205.952 64.1447C206.441 64.481 206.861 64.9082 207.188 65.403C207.394 65.8036 207.534 66.2341 207.605 66.6787C208.12 69.1938 208.287 71.7655 208.453 74.3275C208.545 75.7426 208.636 77.1591 208.629 78.5772C208.607 83.2491 207.521 87.8428 206.44 92.3883C206.301 92.974 206.11 93.6286 205.578 93.9091C205.34 94.0159 205.085 94.0781 204.825 94.0928C201.731 94.456 198.63 94.8197 195.514 94.8676C194.299 94.8864 193.084 94.8569 191.869 94.7794C191.66 94.7766 191.452 94.7405 191.255 94.6724C190.986 94.5436 190.756 94.3479 190.585 94.1041C188.9 91.9817 188.801 89.0474 188.811 86.3379C188.838 79.7133 189.075 73.0941 189.522 66.4802C189.559 65.9343 189.567 65.2713 189.173 64.8418C189.94 65.9769 190.818 67.0325 191.794 67.9926V67.9926Z" fill="white"/>
<path d="M190.045 58.4631C189.766 58.9676 187.71 60.2206 187.313 60.6388C185.095 62.9754 181.048 62.8877 179.019 65.3903C178.306 66.2709 177.935 67.3772 177.662 68.4771C177.277 70.0327 177.071 71.7293 177.717 73.1961C178.338 74.6075 179.647 75.5833 180.536 76.8441C181.511 78.2284 181.95 79.9092 182.37 81.5495C182.68 82.7606 182.993 84.0017 182.873 85.2461C182.735 86.6609 182.05 87.9564 181.646 89.3192C181.241 90.682 181.171 92.3051 182.107 93.3761C182.794 94.1629 183.871 94.4749 184.901 94.6503C186.22 94.8485 187.551 94.9642 188.884 94.9969C190.062 95.0489 191.359 95.059 192.264 94.3046C192.979 93.7093 193.289 92.7433 193.329 91.8147C193.369 90.8861 193.176 89.9657 193.055 89.0441C192.929 88.0888 192.881 87.1251 192.841 86.1624C192.66 81.8429 192.635 77.5206 192.767 73.1956C192.833 72.2967 192.789 71.393 192.635 70.5048C192.383 69.3478 191.757 68.3139 191.235 67.2508C190.192 65.2486 189.72 62.9984 189.869 60.7459C190.028 58.4311 191.037 56.6675 190.045 58.4631Z" fill="white"/>
<path d="M201.64 58.6387C202.065 59.0751 203.508 59.2189 204.049 59.5C204.557 59.7347 205.087 59.9182 205.632 60.0479C207.603 60.6162 209.478 61.4763 211.194 62.5995C211.551 62.808 211.866 63.0802 212.124 63.4025C212.396 63.8449 212.572 64.3398 212.639 64.8548C212.903 66.1648 213.169 67.4906 213.11 68.8257C213.047 70.2429 212.62 71.6154 212.196 72.9693L210.613 78.0282C209.431 81.8044 208.242 85.6176 207.909 89.5602C207.725 91.7453 207.807 93.9445 208.153 96.1099C208.185 96.2153 208.195 96.3263 208.181 96.4357C208.168 96.5451 208.131 96.6503 208.073 96.7443C207.969 96.8474 207.832 96.9105 207.685 96.9226C206.921 97.042 206.182 96.6526 205.49 96.308C203.374 95.2555 201.115 94.517 198.786 94.1157C199.697 92.801 200.399 91.3541 200.868 89.8259C201.135 88.8554 201.345 87.8703 201.497 86.8756L202.234 82.6181C202.533 81.062 202.744 79.4901 202.866 77.9101C202.921 77.3171 202.887 76.7192 202.763 76.1366C202.593 75.5822 202.368 75.0463 202.09 74.5372C200.877 72.0137 200.307 69.134 200.785 66.3751C200.994 65.1677 201.4 63.9587 201.231 62.7451C201.068 61.5783 201.237 60.6714 200.937 59.5167C199.708 54.7755 200.841 57.8177 201.64 58.6387Z" fill="white"/>
<path d="M178.998 69.3802C178.445 70.5278 177.52 71.5055 177.205 72.74C177.083 73.317 177.03 73.9066 177.049 74.4961C176.994 75.3846 177.082 76.276 177.31 77.1367C177.485 77.6811 177.771 78.1831 177.977 78.7168C178.264 79.4625 178.392 80.2599 178.353 81.0578C178.297 82.1633 177.921 83.2364 177.892 84.3429C177.846 86.083 178.651 87.7188 179.437 89.2723C179.634 88.7828 179.937 88.3424 180.323 87.9819C180.708 87.6214 181.168 87.3495 181.67 87.1853C182.172 87.021 182.704 86.9683 183.229 87.031C183.753 87.0936 184.257 87.27 184.706 87.5478C184.886 87.327 184.972 87.044 184.944 86.7605C185.002 84.7417 185.058 82.7229 185.112 80.704C185.197 77.5817 185.278 74.4177 184.559 71.3779C184.235 70.0055 183.73 68.6383 182.805 67.5738C182.317 67.0133 180.663 65.5369 179.863 66.1648C179.503 66.4472 179.588 67.2158 179.531 67.6051C179.445 68.2204 179.265 68.8189 178.998 69.3802V69.3802Z" fill="white"/>
<path d="M213.272 66.0728C213.494 66.9004 213.589 67.757 213.554 68.6133C213.565 70.3584 213.542 72.1033 213.485 73.848C213.493 74.7429 213.379 75.6346 213.145 76.4983C212.966 77.0599 212.69 77.5866 212.506 78.1463C211.953 79.8238 212.255 81.6433 212.302 83.4089C212.336 83.9803 212.287 84.5536 212.157 85.1112C211.865 86.2058 211.081 87.0902 210.534 88.082C210.014 89.024 209.7 90.0798 209.079 90.9585C208.458 91.8372 207.383 92.5334 206.341 92.2637C205.552 92.0593 204.991 91.3609 204.603 90.6439C203.756 89.0676 203.466 87.2517 203.781 85.4904C204.17 83.3474 205.43 81.4464 205.884 79.3162C206.508 76.3909 205.56 73.3723 205.588 70.3815C205.575 69.9127 205.639 69.4449 205.776 68.9966C206.014 68.3134 206.526 67.7679 206.999 67.22C207.589 66.5353 208.138 65.8155 208.642 65.0646C208.98 64.5602 209.44 63.2628 210.04 63.155C211.379 62.9141 212.939 65.0385 213.272 66.0728Z" fill="white"/>
<path d="M172.048 95.2304C171.308 95.0443 170.544 94.9632 169.781 94.9895C168.979 95.0338 168.196 95.2482 167.483 95.6186C166.771 95.9889 166.145 96.5066 165.648 97.1373C165.151 97.768 164.794 98.4972 164.601 99.2765C164.408 100.056 164.383 100.867 164.528 101.657C164.713 102.512 165.015 103.338 165.426 104.11C166.027 105.33 166.749 106.547 167.862 107.328C168.532 107.758 169.254 108.102 170.011 108.351L175.873 110.558C176.736 110.883 177.598 111.208 178.469 111.509C182.845 113.021 187.407 113.927 192.028 114.203C193.434 114.335 194.852 114.263 196.238 113.99C196.573 113.946 196.88 113.781 197.1 113.524C197.212 113.33 197.278 113.112 197.293 112.888L197.653 110.364C197.734 110.013 197.723 109.646 197.623 109.3C197.457 108.876 197.043 108.609 196.648 108.382C192.794 106.17 188.294 104.949 185.05 101.913C184.286 101.198 183.647 100.065 182.719 99.5789C181.667 99.0282 180.428 98.7139 179.34 98.2065C176.963 97.0972 174.625 95.8224 172.048 95.2304Z" fill="#2F2E41"/>
<path opacity="0.1" d="M177.901 98.6333C179.973 99.2823 188.721 103.778 190.221 105.348C190.02 105.421 183.2 101.601 182.996 101.539C181.12 101.024 179.283 100.377 177.499 99.6031C177.144 99.4388 175.19 98.6667 175.279 98.2186C175.379 97.7128 177.533 98.5181 177.901 98.6333Z" fill="black"/>
<path d="M203.751 115.512C203.869 115.521 203.986 115.487 204.08 115.416C204.121 115.363 204.151 115.302 204.169 115.237C204.187 115.172 204.191 115.105 204.182 115.038L204.173 111.599C203.183 111.128 202.077 110.977 200.991 110.832L195.922 110.155C196.039 110.17 195.13 112.336 195.269 112.626C195.515 113.135 197.392 113.587 197.922 113.828C199.763 114.665 201.677 115.584 203.751 115.512Z" fill="#A0616A"/>
<path d="M187.85 111.587C186.893 111.74 185.825 111.874 185.205 112.619C184.419 113.563 184.754 114.97 185.129 116.14C185.152 116.291 185.205 116.436 185.284 116.566C185.364 116.696 185.469 116.809 185.594 116.898C185.718 116.987 185.859 117.05 186.008 117.083C186.157 117.117 186.311 117.12 186.461 117.093C187.334 117.148 188.263 117.191 189.025 116.763C189.371 116.535 189.703 116.288 190.021 116.024C190.584 115.65 191.202 115.367 191.853 115.187C193.049 114.811 194.281 114.557 195.528 114.43C196.02 114.407 196.507 114.321 196.976 114.174C197.211 114.099 197.425 113.97 197.602 113.799C197.779 113.627 197.914 113.417 197.996 113.185C198.173 112.56 197.809 111.923 197.461 111.375C197.059 110.657 196.538 110.013 195.92 109.47C194.975 108.737 194.508 109.3 193.557 109.769C191.756 110.657 189.833 111.27 187.85 111.587V111.587Z" fill="#A0616A"/>
<path d="M185.349 112.449L179.273 110.654C178.544 110.4 177.783 110.252 177.012 110.216C176.626 110.2 176.241 110.267 175.883 110.411C175.525 110.556 175.202 110.776 174.935 111.055C174.464 111.608 174.329 112.363 174.212 113.08L173.96 114.613C173.793 115.385 173.745 116.179 173.82 116.967C173.86 117.36 173.99 117.74 174.199 118.076C174.408 118.412 174.691 118.696 175.027 118.906C175.868 119.364 176.898 119.14 177.837 118.949C179.732 118.561 181.66 118.355 183.595 118.331C184.322 118.323 185.085 118.332 185.727 117.991C186.1 117.77 186.414 117.462 186.64 117.092C186.867 116.722 186.999 116.303 187.027 115.871C187.146 114.561 186.71 112.851 185.349 112.449Z" fill="#2F2E41"/>
<path d="M206.14 110.884C206.927 110.746 207.622 110.299 208.377 110.035C209.44 109.663 210.591 109.663 211.716 109.667C212.13 109.629 212.546 109.713 212.914 109.907C213.409 110.237 213.536 110.897 213.621 111.486L214.129 115.042C214.265 115.706 214.28 116.388 214.171 117.057C214.022 117.716 213.572 118.351 212.918 118.521C212.124 118.727 211.345 118.22 210.595 117.887C208.719 117.054 206.54 117.267 204.585 116.644C204.398 116.607 204.221 116.53 204.066 116.419C203.911 116.308 203.781 116.166 203.685 116.001C203.618 115.804 203.595 115.594 203.615 115.387C203.649 114.244 203.408 112.683 203.752 111.591C204.062 110.608 205.26 110.884 206.14 110.884Z" fill="#2F2E41"/>
<path d="M218.998 93.7991C220.212 93.4948 221.471 93.4089 222.715 93.5453C223.709 93.6547 224.733 93.9311 225.458 94.6185C226.341 95.4553 226.625 96.7493 226.648 97.9652C226.687 100.387 225.884 102.747 224.375 104.643C224.006 105.122 223.568 105.544 223.075 105.894C222.543 106.226 221.976 106.499 221.384 106.708L208.255 111.884C204.801 113.246 201.335 114.611 197.733 115.509C197.634 115.556 197.527 115.584 197.418 115.589C197.309 115.595 197.2 115.579 197.097 115.541C196.994 115.504 196.9 115.447 196.819 115.372C196.739 115.298 196.675 115.209 196.629 115.109C195.479 113.467 194.514 111.702 193.752 109.848C193.716 109.804 193.691 109.752 193.679 109.696C193.668 109.64 193.67 109.583 193.685 109.528C193.7 109.473 193.729 109.423 193.768 109.381C193.807 109.339 193.855 109.308 193.909 109.289L203.195 103.956C203.876 103.601 204.51 103.164 205.085 102.655C205.486 102.266 205.815 101.809 206.055 101.304C206.247 100.902 206.265 99.9542 206.511 99.6571C206.752 99.3663 207.575 99.3431 207.956 99.2287C208.492 99.0645 209.017 98.8661 209.528 98.6346C211.606 97.7057 213.455 96.3562 215.446 95.2687C216.563 94.6304 217.757 94.1366 218.998 93.7991V93.7991Z" fill="#2F2E41"/>
<path opacity="0.1" d="M213.734 97.7817C212.139 98.9793 210.073 100.08 208.492 101.309C207.952 101.729 198.956 106.784 198.829 107.455C200.304 107.704 209.701 101.133 211.045 100.478C212.39 99.822 213.582 98.8974 214.763 97.9797C215.064 97.7458 216.339 97.0427 215.475 96.7814C214.988 96.6342 214.093 97.5423 213.734 97.7817Z" fill="black"/>
<path d="M202.757 58.7547H188.753C188.184 58.7547 187.638 58.9806 187.236 59.3827C186.834 59.7848 186.607 60.3302 186.607 60.8989V61.6841H186.455V63.4401H186.607V64.6693H186.455V65.7229H186.607V78.6796C186.607 79.2483 186.834 79.7937 187.236 80.1958C187.638 80.598 188.184 80.8239 188.753 80.8239H202.757C203.326 80.8239 203.871 80.598 204.274 80.1958C204.676 79.7937 204.902 79.2483 204.902 78.6796V60.8989C204.902 60.3302 204.676 59.7848 204.274 59.3827C203.871 58.9806 203.326 58.7547 202.757 58.7547V58.7547Z" fill="#D0CDE1"/>
<path d="M204.982 42.1925L197.88 38.4736L188.071 39.995L186.042 48.9539L191.093 48.7594L192.504 45.4682V48.7054L194.835 48.6158L196.188 43.3755L197.034 48.9539L205.321 48.7847L204.982 42.1925Z" fill="#2F2E41"/>
<path d="M180.857 92.6388C181.178 93.1847 181.635 93.6387 182.182 93.9571C182.542 94.1212 182.934 94.201 183.329 94.1904C183.724 94.1798 184.111 94.0792 184.462 93.8961C185.161 93.5213 185.733 92.9477 186.106 92.2478C186.878 90.8853 187.038 89.255 186.942 87.6921C186.845 86.1293 186.512 84.5904 186.364 83.0316C186.256 81.8985 186.248 80.7586 186.239 79.6204C186.212 79.3811 186.263 79.1395 186.382 78.9305C186.589 78.7254 186.856 78.5921 187.144 78.5505C188.702 78.0878 189.736 76.6282 190.477 75.1826C190.972 74.2173 191.403 73.1622 191.307 72.0817C191.212 71.0011 190.435 69.9126 189.355 69.8024C188.465 69.7115 187.643 70.2766 187.001 70.8994C185.382 72.4804 184.341 74.5596 184.046 76.8031C183.905 77.9017 183.945 79.0303 183.646 80.0968C183.008 82.3741 181.011 83.7704 180.015 85.8195C178.919 88.0775 179.524 90.6409 180.857 92.6388Z" fill="#A0616A"/>
<path d="M210.247 83.9385C210.02 84.4666 209.69 84.944 209.275 85.3423C208.86 85.7406 208.37 86.0518 207.833 86.2576C207.165 86.5256 206.429 86.5707 205.734 86.3861C205.389 86.2905 205.071 86.1167 204.804 85.8783C204.537 85.6398 204.329 85.3432 204.196 85.0113C204.09 84.677 204.031 84.3293 204.023 83.9787C203.923 82.4429 203.961 80.8604 204.52 79.4261C204.735 78.8729 205.025 78.3483 205.195 77.7795C205.362 77.1226 205.447 76.4476 205.449 75.7699L205.633 71.5797C205.663 71.2755 205.642 70.9683 205.57 70.6711C205.387 70.0648 204.821 69.6708 204.3 69.3092C203.044 68.436 201.803 67.4171 201.194 66.0139C200.985 65.5914 200.91 65.1151 200.979 64.6489C201.151 63.8168 201.991 63.2781 202.821 63.0967C203.365 62.9779 203.926 62.9704 204.473 63.0744C205.019 63.1784 205.539 63.3919 206 63.702C206.462 64.0121 206.856 64.4124 207.158 64.8787C207.461 65.3451 207.666 65.8678 207.761 66.4155C207.843 66.8884 207.842 67.3714 207.89 67.8489C207.992 68.8619 208.314 69.8384 208.515 70.8364C209.011 73.2947 208.754 75.8359 209.244 78.2938C209.654 80.3489 211.2 81.6899 210.247 83.9385Z" fill="#A0616A"/>
<path d="M195.942 68.1813C196.912 68.1813 197.699 67.3951 197.699 66.4253C197.699 65.4555 196.912 64.6693 195.942 64.6693C194.972 64.6693 194.185 65.4555 194.185 66.4253C194.185 67.3951 194.972 68.1813 195.942 68.1813Z" fill="#6AC33B"/>
<path d="M5.18292 129.536C8.04509 129.536 10.3653 127.217 10.3653 124.356C10.3653 121.495 8.04509 119.176 5.18292 119.176C2.32074 119.176 0.000488281 121.495 0.000488281 124.356C0.000488281 127.217 2.32074 129.536 5.18292 129.536Z" fill="#2F2E41"/>
<path d="M23.9684 139.734L21.3581 137.198L16.1165 138.825L16.6199 144.892L27.3974 144.391L24.0865 139.895L23.9684 139.734Z" fill="#FBBEBE"/>
<path d="M18.2594 139.682C22.8868 139.682 26.638 135.932 26.638 131.307C26.638 126.682 22.8868 122.933 18.2594 122.933C13.6321 122.933 9.88086 126.682 9.88086 131.307C9.88086 135.932 13.6321 139.682 18.2594 139.682Z" fill="#FBBEBE"/>
<path d="M70.274 150.483C70.274 150.483 80.5672 168.164 83.0169 170.818C84.1818 172.124 85.423 173.361 86.7338 174.521C86.7338 174.521 85.582 178.339 83.7478 178.203C82.7024 178.14 81.6772 177.887 80.7222 177.457C80.7222 177.457 79.9036 175.336 78.4756 174.406C77.0477 173.476 65.3814 162.004 65.6541 158.337C65.9268 154.671 70.274 150.483 70.274 150.483Z" fill="#2F2E41"/>
<path d="M33.6167 175.714C33.6167 175.714 44.5916 184.228 59.5069 176.228L60.7922 175.282C60.7922 175.282 58.6231 180.16 58.4218 181.482C58.1884 183.016 52.5409 191.997 51.6193 192.428C50.6977 192.858 50.4946 193.255 50.4946 193.255L54.4056 197.558L55.8517 196.494C55.8517 196.494 61.4901 188.509 63.1393 187.049C64.7884 185.588 72.6457 170.525 72.6457 170.525C72.6457 170.525 75.6498 164.849 68.1525 164.422C60.6553 163.995 57.2054 166.037 57.2054 166.037L43.8996 168.15L33.6167 175.714Z" fill="#2F2E41"/>
<path d="M86.8612 173.684L92.4123 177.523C92.4123 177.523 99.4943 179.741 95.1318 181.217C90.7694 182.693 79.2734 183.227 79.0126 181.19C78.7518 179.154 79.4661 175.949 80.0396 176.124C80.6131 176.3 84.5937 177.333 86.8612 173.684Z" fill="#2F2E41"/>
<path d="M56.343 195.175L57.3705 200.815C57.3705 200.815 60.292 206.399 56.7842 204.667C53.2765 202.934 46.0495 196.352 47.1167 194.972C48.1839 193.592 50.5393 192.095 50.7785 192.545C51.0177 192.995 52.788 196.005 56.343 195.175Z" fill="#2F2E41"/>
<path d="M45.7581 170.002C45.7581 170.002 38.2977 178.708 33.7683 176.593C29.239 174.478 10.7085 149.983 12.8244 145.455C14.9402 140.928 15.6497 141.892 15.6497 141.892L25.2175 142.776L22.4646 138.364C22.4646 138.364 23.75 137.419 24.9748 138.746C26.1997 140.073 31.1171 143.388 32.8302 148.07C34.5433 152.751 39.5728 152.518 39.5728 152.518L45.7581 170.002Z" fill="white"/>
<path d="M75.8857 152.049L62.9533 165.771L51.3684 145.326L62.3818 132.026L75.8857 152.049Z" fill="#3F3D56"/>
<path d="M74.9095 151.901L63.2292 163.959L52.6448 145.378L62.3516 133.163L74.9095 151.901Z" fill="white"/>
<path d="M62.3196 165.246L62.9532 165.771L62.5469 166.564L44.4635 171.944L44.2925 171.325L45.1152 170.474L62.3196 165.246Z" fill="#B3B3B3"/>
<path d="M63.114 165.653L44.388 171.505L32.9729 149.945L51.3684 145.326L63.114 165.653Z" fill="#D0CDE1"/>
<path d="M61.7042 162.728L60.9007 163.319L51.9841 147.844L52.9057 147.414L61.7042 162.728Z" fill="#3F3D56"/>
<path d="M59.8607 163.589L51.9392 165.95L42.9468 150.036L50.7835 148.232L59.8607 163.589Z" fill="#3F3D56"/>
<path d="M37.5445 151.781L39.1846 151.318C39.1846 151.318 48.331 150.284 48.4645 153.157C48.5981 156.029 37.957 154.696 37.957 154.696L36.5381 152.769L37.5445 151.781Z" fill="#FBBEBE"/>
<path d="M45.5669 164.696L47.8497 163.759C47.8497 163.759 54.7405 160.671 52.7637 158.659C50.787 156.647 44.6906 160.141 44.6906 160.141L43.5234 161.247L45.5669 164.696Z" fill="#FBBEBE"/>
<path d="M43.5326 160.25C43.5326 160.25 47.2496 163.953 46.4038 164.823C45.558 165.693 31.6888 177.132 28.2508 173.472C24.8127 169.812 8.06211 151.434 14.58 149.858C21.098 148.282 22.8201 151.967 22.8201 151.967L31.4246 166.681L43.5326 160.25Z" fill="white"/>
<path d="M32.4026 149.003L38.5083 151.072L38.4086 155.478L31.9512 154.782L32.4026 149.003Z" fill="white"/>
<path opacity="0.2" d="M37.9057 162.532L31.3273 166.381L23.8113 154.827L31.0664 164.345L37.9057 162.532Z" fill="black"/>
<path d="M14.5817 138.849C20.0904 138.849 24.5561 134.386 24.5561 128.88C24.5561 123.373 20.0904 118.91 14.5817 118.91C9.07291 118.91 4.60718 123.373 4.60718 128.88C4.60718 134.386 9.07291 138.849 14.5817 138.849Z" fill="#2F2E41"/>
<path d="M68.4761 152.919L61.4919 142.707L64.4526 139.044L71.7097 149.551L68.4761 152.919Z" fill="#6AC33B"/>
<path d="M68.2794 157.025L57.6467 141.575L58.1711 140.941L68.7541 156.428L68.2794 157.025Z" fill="#E6E6E6"/>
<path d="M66.9093 158.528L56.2766 143.078L56.801 142.445L67.384 157.932L66.9093 158.528Z" fill="#E6E6E6"/>
<path d="M65.742 159.634L55.1094 144.184L55.6338 143.551L66.2167 159.038L65.742 159.634Z" fill="#E6E6E6"/>
<path d="M18.9988 122.224H22.0844C23.6467 122.224 25.145 122.844 26.2497 123.948C27.3544 125.052 27.975 126.55 27.975 128.112V128.112H18.9988V122.224Z" fill="#2F2E41"/>
</svg>
