<svg width="499" height="186" viewBox="0 0 499 186" fill="none" xmlns="http://www.w3.org/2000/svg">
<rect width="499" height="186" fill="white"/>
<path d="M439.654 101.186C418.516 101.186 401.308 118.421 401.308 139.593C401.308 160.764 418.516 178 439.654 178C460.792 178 478 160.764 478 139.593C478 118.421 460.927 101.186 439.654 101.186ZM439.654 156.014C430.576 156.014 423.394 148.686 423.394 139.729C423.394 130.636 430.711 123.443 439.654 123.443C448.733 123.443 455.914 130.771 455.914 139.729C456.049 148.686 448.733 156.014 439.654 156.014Z" fill="url(#paint0_radial)"/>
<path d="M381.403 33L370.699 43.7214L359.994 33L352 40.8714L362.704 51.7286L352 62.45L359.994 70.3214L370.699 59.6L381.403 70.3214L389.262 62.45L378.558 51.7286L389.262 40.8714L381.403 33Z" fill="#FFCC00"/>
<path d="M302.057 126.729C293.715 126.729 289.693 121.068 286.118 116.152C282.542 111.087 280.01 107.959 275.094 107.959C270.178 107.959 267.646 111.087 264.07 116.152C260.495 121.217 256.473 126.729 248.131 126.729C239.788 126.729 235.766 121.068 232.191 116.152C228.467 111.087 225.934 107.959 221.018 107.959C216.102 107.959 213.57 111.087 209.995 116.152C206.419 121.217 202.397 126.729 194.055 126.729C185.713 126.729 181.691 121.068 178.115 116.152C174.391 111.087 172.008 107.959 166.943 107.959C162.027 107.959 159.494 111.087 155.919 116.152C152.344 121.217 148.322 126.729 139.979 126.729C138.341 126.729 137 125.388 137 123.749C137 122.111 138.341 120.77 139.979 120.77C144.895 120.77 147.428 117.642 151.003 112.577C154.578 107.661 158.749 102 166.943 102C175.285 102 179.307 107.661 182.882 112.577C186.458 117.642 188.99 120.77 193.906 120.77C198.822 120.77 201.354 117.642 204.93 112.577C208.654 107.661 212.676 102 221.018 102C229.361 102 233.383 107.661 236.958 112.577C240.533 117.642 243.066 120.77 247.982 120.77C252.898 120.77 255.43 117.642 259.005 112.577C262.73 107.661 266.752 102 275.094 102C283.436 102 287.458 107.661 291.034 112.577C294.609 117.642 297.141 120.77 302.057 120.77C306.973 120.77 309.506 117.642 313.081 112.577C316.656 107.512 320.678 102 329.021 102C330.659 102 332 103.341 332 104.979C332 106.618 330.659 107.959 329.021 107.959C324.105 107.959 321.572 111.087 317.997 116.152C314.422 121.068 310.4 126.729 302.057 126.729Z" fill="#6AC33B"/>
<defs>
<radialGradient id="paint0_radial" cx="0" cy="0" r="1" gradientUnits="userSpaceOnUse" gradientTransform="translate(439.654 139.593) rotate(90) scale(38.4071 38.346)">
<stop stop-color="#47D78D"/>
<stop offset="1" stop-color="#6AC33B"/>
</radialGradient>
</defs>
</svg>
