<svg width="518" height="538" viewBox="0 0 518 538" fill="none" xmlns="http://www.w3.org/2000/svg">
<g clip-path="url(#clip0)">
<path d="M153.329 317.87C152.684 317.87 152.066 318.127 151.61 318.582C151.154 319.038 150.898 319.655 150.897 320.3V454.685C150.898 455.329 151.154 455.947 151.61 456.402C152.066 456.858 152.684 457.114 153.329 457.115H515.569C516.213 457.114 516.831 456.858 517.287 456.402C517.743 455.947 517.999 455.329 518 454.685V320.3C517.999 319.655 517.743 319.038 517.287 318.582C516.831 318.127 516.213 317.87 515.569 317.87H153.329Z" fill="#E6E6E6"/>
<path d="M164.85 328.202C164.39 328.202 163.948 328.385 163.623 328.711C163.297 329.036 163.114 329.477 163.114 329.938V445.047C163.114 445.507 163.297 445.948 163.623 446.274C163.948 446.599 164.39 446.782 164.85 446.783H504.047C504.508 446.782 504.949 446.599 505.275 446.274C505.601 445.948 505.784 445.507 505.784 445.047V329.938C505.784 329.477 505.601 329.036 505.275 328.711C504.949 328.385 504.508 328.202 504.047 328.202H164.85Z" fill="white"/>
<path d="M95.7078 538C148.566 538 191.416 531.783 191.416 524.114C191.416 516.445 148.566 510.228 95.7078 510.228C42.8498 510.228 0 516.445 0 524.114C0 531.783 42.8498 538 95.7078 538Z" fill="#E6E6E6"/>
<path d="M78.9345 139.824L78.2397 157.181L100.471 172.456L103.945 139.824H78.9345Z" fill="#E4A1A3"/>
<path d="M131.039 228.693L138.681 250.91L153.965 303.677C153.965 303.677 169.249 329.365 156.049 330.06C142.849 330.754 145.628 307.148 145.628 307.148L124.092 269.656L119.229 230.082L131.039 228.693Z" fill="#E4A1A3"/>
<path d="M123.907 486.735C123.907 486.735 128.978 500.563 134.149 507.244C139.32 513.926 131.365 518.199 131.365 518.199L106.1 515.217C106.1 515.217 107.622 493.118 105.648 489.448L123.907 486.735Z" fill="#E4A1A3"/>
<path d="M129.911 511.097C129.911 511.097 133.965 501.037 136.268 505.318C138.57 509.599 147.741 514.919 147.741 514.919C147.741 514.919 172.111 519.17 153.991 526.539C135.87 533.908 124.488 527.41 124.488 527.41C124.488 527.41 107.408 527.915 105.434 524.245C103.461 520.576 102.897 506.474 106.453 508.614C110.008 510.753 126.048 517.113 129.911 511.097Z" fill="#383838"/>
<path d="M76.1557 468.918C76.1557 468.918 74.0715 483.498 75.461 491.83C76.8504 500.161 67.819 500.161 67.819 500.161L46.9773 485.581C46.9773 485.581 58.7876 466.835 58.7876 462.669L76.1557 468.918Z" fill="#E4A1A3"/>
<path d="M128.26 312.008C128.26 312.008 122.702 379.354 111.587 404.349C100.471 429.343 83.103 477.944 83.103 477.944L53.9246 467.529C53.9246 467.529 67.819 404.349 80.3241 395.323L88.6607 294.651L128.26 312.008Z" fill="#383838"/>
<path d="M117.839 313.397L108.113 350.194L128.955 487.664L102.555 493.913L69.2084 339.085C69.2084 339.085 58.7876 318.951 65.0401 299.511C71.2926 280.071 117.839 313.397 117.839 313.397Z" fill="#383838"/>
<path d="M69.9032 493.218C69.9032 493.218 78.2399 486.275 78.2399 491.135C78.2399 495.995 83.7977 505.021 83.7977 505.021C83.7977 505.021 103.25 520.296 83.7977 518.213C64.3454 516.13 57.3982 505.021 57.3982 505.021C57.3982 505.021 42.1143 497.384 42.1143 493.218C42.1143 489.052 48.2989 476.364 50.417 479.931C52.5351 483.498 63.6507 496.69 69.9032 493.218Z" fill="#383838"/>
<path d="M90.7448 148.849C102.255 148.849 111.587 139.524 111.587 128.021C111.587 116.517 102.255 107.192 90.7448 107.192C79.2342 107.192 69.9031 116.517 69.9031 128.021C69.9031 139.524 79.2342 148.849 90.7448 148.849Z" fill="#E4A1A3"/>
<path d="M76.8504 148.849L99.0815 166.207L103.25 156.487L108.113 164.818C108.113 164.818 132.428 178.01 132.428 183.564C132.428 189.118 133.123 312.008 133.123 312.008C133.123 312.008 111.587 332.837 90.7448 303.677C69.9031 274.516 62.9559 318.257 62.9559 318.257L57.3981 232.859L49.0614 177.315C49.0614 177.315 50.4508 174.538 54.6192 171.761C58.7875 168.984 73.3767 157.875 73.3767 157.875L76.8504 148.849Z" fill="#6AC33B"/>
<path d="M124.092 179.398L133.123 182.87L141.46 230.082L122.702 234.247L124.092 179.398Z" fill="#6AC33B"/>
<path d="M35.1669 225.916L28.9144 257.853L71.2926 300.899C71.2926 300.899 81.7134 321.728 90.0501 312.702C98.3868 303.677 75.4609 291.874 75.4609 291.874L49.0614 248.827L55.3139 233.553L35.1669 225.916Z" fill="#E4A1A3"/>
<path d="M66.5634 114.51C66.5634 114.51 62.7021 106.021 72.7414 102.162C72.7414 102.162 81.2362 88.2699 98.2257 97.5311C98.2257 97.5311 109.81 102.162 109.81 114.51C109.81 126.859 113.671 129.174 113.671 129.174C113.671 129.174 107.921 123.278 106.376 118.648C104.832 114.017 92.82 112.967 88.1865 117.597C83.553 122.228 71.9692 121.456 71.9692 121.456L72.7414 138.435C72.7414 138.435 68.8801 128.402 67.3357 128.402C65.7912 128.402 64.2466 114.51 66.5634 114.51Z" fill="#2F2E41"/>
<path d="M56.7033 177.316H49.0614L30.9985 230.082L56.0086 237.719L69.9031 203.004L56.7033 177.316Z" fill="#6AC33B"/>
<path opacity="0.3" d="M89.4402 460.557L80.6714 395.67L93.1973 450.464L89.4402 460.557Z" fill="black"/>
<path d="M226.665 165.722C225.544 165.739 224.475 166.2 223.694 167.003C222.912 167.806 222.482 168.887 222.496 170.007V267.142C222.482 268.262 222.912 269.343 223.694 270.146C224.475 270.949 225.544 271.41 226.665 271.427H442.724C443.845 271.41 444.913 270.949 445.694 270.146C446.476 269.343 446.906 268.262 446.892 267.142V170.007C446.906 168.887 446.476 167.806 445.694 167.003C444.913 166.2 443.845 165.739 442.724 165.722H226.665Z" fill="#E6E6E6"/>
<path d="M226.665 68C224.366 68 222.496 70.1089 222.496 72.7014V140.365C222.496 142.958 224.366 145.066 226.665 145.066H442.724C445.022 145.066 446.892 142.958 446.892 140.365V72.7013C446.892 70.1089 445.022 68 442.724 68L226.665 68Z" fill="#E6E6E6"/>
<path d="M420.145 85.5309H249.243V95.251H420.145V85.5309Z" fill="white"/>
<path d="M420.145 184.641H249.243V194.361H420.145V184.641Z" fill="white"/>
<path d="M420.493 106.012H249.59V110.525H420.493V106.012Z" fill="white"/>
<path d="M420.308 205.123H249.406V209.636H420.308V205.123Z" fill="white"/>
<path d="M420.493 121.981H249.59V126.494H420.493V121.981Z" fill="white"/>
<path d="M420.308 221.438H249.406V225.951H420.308V221.438Z" fill="white"/>
<path d="M420.308 237.407H249.406V241.92H420.308V237.407Z" fill="white"/>
<path d="M420.308 254.07H249.406V258.583H420.308V254.07Z" fill="white"/>
<path d="M218.227 395.323C217.95 395.323 217.685 395.433 217.49 395.628C217.295 395.824 217.185 396.088 217.185 396.364V403.307C217.185 403.584 217.295 403.848 217.49 404.043C217.685 404.239 217.95 404.349 218.227 404.349H455.822C456.098 404.349 456.363 404.239 456.559 404.043C456.754 403.848 456.864 403.584 456.864 403.307V396.364C456.864 396.088 456.754 395.824 456.559 395.628C456.363 395.433 456.098 395.323 455.822 395.323H218.227Z" fill="#E6E6E6"/>
<path d="M226.665 294.166C225.544 294.183 224.475 294.644 223.694 295.447C222.912 296.25 222.482 297.331 222.496 298.451V395.586C222.482 396.706 222.912 397.787 223.694 398.59C224.475 399.393 225.544 399.854 226.665 399.871H442.724C443.845 399.854 444.913 399.393 445.694 398.59C446.476 397.787 446.906 396.706 446.892 395.586V298.451C446.906 297.331 446.476 296.25 445.694 295.447C444.913 294.644 443.845 294.183 442.724 294.166H226.665Z" fill="#262626"/>
<path d="M420.145 310.308H249.243V320.028H420.145V310.308Z" fill="#FFCC00"/>
<path d="M420.308 330.789H249.406V335.302H420.308V330.789Z" fill="#FFCC00"/>
<path d="M420.308 347.105H249.406V351.618H420.308V347.105Z" fill="#FFCC00"/>
<path d="M420.308 363.074H249.406V367.587H420.308V363.074Z" fill="#FFCC00"/>
<path d="M420.308 379.737H249.406V384.25H420.308V379.737Z" fill="#FFCC00"/>
<rect x="157" width="214" height="68" fill="white" fill-opacity="0.01"/>
</g>
<defs>
<clipPath id="clip0">
<rect width="518" height="538" fill="white"/>
</clipPath>
</defs>
</svg>
