<?xml version="1.0" encoding="utf-8"?>
<!-- Generator: Adobe Illustrator 22.1.0, SVG Export Plug-In . SVG Version: 6.00 Build 0)  -->
<svg version="1.1" id="_x38_13c2686-e70f-4fb0-bf6b-a2eb7b1db384"
	 xmlns="http://www.w3.org/2000/svg" xmlns:xlink="http://www.w3.org/1999/xlink" x="0px" y="0px" viewBox="0 0 1121 851.8"
	 style="enable-background:new 0 0 1121 851.8;" xml:space="preserve">
<style type="text/css">
	.st0{fill:#3F3D56;}
	.st1{fill:#2F2E41;}
	.st2{fill:#FBBEBE;}
	.st3{fill:#6AC33B;}
	.st4{fill:#FFFFFF;}
	.st5{fill:#E6E6E6;}
</style>
<title>interaction design</title>
<path class="st0" d="M757.6,769.7c-45.9,0.1-91.8-2.9-137.3-9c-1.5-0.2-3-0.4-4.5-0.6c-11.2-1.6-22.3-3.4-33.2-5.4
	c-48.9-8.9-95-22-137-38.8c-139.9-56-227.9-44.1-277-24.2c-53.2,21.5-73.6,56.6-73.8,57l-1.7-1c0.2-0.4,20.9-36,74.7-57.8
	c31.5-12.8,68.1-18.3,108.7-16.6c50.7,2.2,107.9,15.9,169.9,40.7c41.9,16.8,87.9,29.8,136.7,38.7c10.8,2,22,3.8,33.1,5.4
	c1.5,0.2,3,0.4,4.5,0.6c123.4,17,242.4,6.7,320.5-4.8c64.4-9.5,105.8-20.7,106.2-20.8l0.5,1.9c-0.4,0.1-41.9,11.3-106.5,20.8
	C880.5,764.9,819.1,769.5,757.6,769.7z"/>
<path class="st0" d="M353.7,188.7c-115.2-8.7-198.3-31-199.1-31.2l0.5-1.9c0.8,0.2,83.8,22.5,198.8,31.2c106.1,8,262,5.8,402.2-50.2
	c62-24.9,119.2-38.6,169.9-40.8c40.6-1.8,77.2,3.8,108.7,16.6c53.8,21.8,74.5,57.4,74.7,57.8l-1.7,1c-0.2-0.4-20.6-35.5-73.8-57
	c-49.2-19.8-137.1-31.8-277,24.2c-62,24.8-132.3,41.3-208.9,48.9c-33.3,3.3-67.8,5-103.3,5C414.9,192.2,384.6,191.1,353.7,188.7z"/>
<path class="st1" d="M752.5,44.5c0,0-39.6-14.1-65,42.4s-65,118.7-65,118.7l22.6,5.7c0,0,5.7-39.6,19.8-45.2l-5.7,50.9
	c0,0,169.5,59.3,245.8-5.7l-2.8-19.8c0,0,11.3,2.8,11.3,19.8l8.5-8.5c0,0-8.5-17-33.9-39.6c-16.7-14.8-22.4-43.1-24.4-60.7
	c-1.5-14.7-7.4-28.7-16.9-40C829.9,42.9,799.1,22.1,752.5,44.5z"/>
<path class="st2" d="M992.6,364.3c0,0,74.4,63.5,85.4,100.7c10.9,37.2-41.6,41.6-41.6,41.6l-113.8,10.9c0,0-2.2,52.5-21.9,59.1
	s-4-86.9-4-86.9l111.3-31.3l-50.3-52.5L992.6,364.3z"/>
<path class="st2" d="M644.5,430l-8.8,116l-48.2,197c0,0-43.8,89.8-6.6,91.9c37.2,2.2,35-85.4,35-85.4l70.2-186l6.6-127L644.5,430z"
	/>
<ellipse transform="matrix(0.7071 -0.7071 0.7071 0.7071 115.6494 587.4854)" class="st2" cx="767" cy="154.1" rx="72.2" ry="72.2"/>
<path class="st2" d="M734.3,189.2c0,0,26.3,94.1-15.3,118.2s105.1,41.6,144.5-30.6c0,0-70.1-24.1-50.3-87.6L734.3,189.2L734.3,189.2
	z"/>
<path class="st3" d="M683.9,318.3l-13.1-4.4c0,0-26.3,10.9-26.3,30.6s-4.4,98.5-4.4,98.5l59.1,6.6L683.9,318.3z"/>
<path class="st1" d="M941.2,754.8c-80.8,12-198.6,21.6-320.7,4.8c0-1.2,0-2.4,0-3.5c0-6.8,0.3-13.6,0.8-20.3
	c6.3-82.2,48.6-150.8,65-174.5c0.8-1.2,1.6-2.3,2.3-3.3c2.6-3.7,4.2-5.7,4.2-5.7s127-2.1,192.6,24.2c3.2,1.3,6.1,3.2,8.6,5.6
	C918.3,604.8,932.7,678.2,941.2,754.8z"/>
<path class="st3" d="M894.1,287.7c0,0,28.5-15.3,56.9,17.5l56.9,65.7L964.1,419l-83.2-50.3L894.1,287.7z"/>
<path class="st1" d="M689,154.6c25.6-18.5,46.3-39.8,60-65.2c0,0,46.9,52.1,75.6,54.8c28.7,2.6,2.6-62.6,2.6-62.6l-52.1-13
	l-49.5,5.2l-39.1,26.1L689,154.6z"/>
<path class="st3" d="M852.5,272.3c0,0-30.6,48.4-122.6,25.3L677.7,312l-6.9,1.9c0,0,6.6,131.3,24.1,155.4s13.1,37.2,8.8,39.4
	c-4.4,2.2-15.3-2.2-8.8,8.8c6.6,10.9,15.3,4.4,6.6,10.9c-8.8,6.6-13.1,30.6-13.1,30.6l205.7,26.4c0,0-6.6-85.4,10.9-129.2
	s21.9-61.3,21.9-61.3l-13.1-109.5L852.5,272.3z"/>
<g>
	<path class="st4" d="M70.3,769.2c-1.5,0-2.9-0.5-4-1.5c-1.2-1.1-1.9-2.5-2.1-4.1L19.8,100.5c-0.2-3.3,2.3-6.2,5.6-6.4l506.4-33.9
		c1.6-0.1,3.2,0.4,4.4,1.5s1.9,2.5,2.1,4.1l44.4,663.1c0.2,3.3-2.3,6.2-5.6,6.4L70.7,769.2C70.5,769.2,70.4,769.2,70.3,769.2z
		 M32.2,105.7l43.6,651.1l494.3-33.1L526.6,72.5L32.2,105.7z"/>
</g>
<g>
	
		<rect x="47.5" y="82.3" transform="matrix(0.9978 -6.687649e-02 6.687649e-02 0.9978 -27.0535 21.0753)" class="st5" width="507.5" height="664.6"/>
</g>
<g>
	
		<rect x="61.8" y="117.3" transform="matrix(0.9978 -6.687649e-02 6.687649e-02 0.9978 -11.2455 19.4816)" class="st4" width="447.1" height="120.8"/>
</g>
<g>
	
		<rect x="250.9" y="272.9" transform="matrix(0.9978 -6.687649e-02 6.687649e-02 0.9978 -31.9246 27.1705)" class="st4" width="277.9" height="435"/>
</g>
<g>
	
		<rect x="250.9" y="160.9" transform="matrix(0.9978 -6.687649e-02 6.687649e-02 0.9978 -10.3569 20.9249)" class="st5" width="112.9" height="8.5"/>
</g>
<g>
	
		<rect x="237.3" y="183" transform="matrix(0.9978 -6.687649e-02 6.687649e-02 0.9978 -11.8327 21.0412)" class="st5" width="142.1" height="8.5"/>
</g>
<g>
	
		<rect x="320.9" y="373.9" transform="matrix(0.9978 -6.687649e-02 6.687649e-02 0.9978 -24.4454 26.0832)" class="st5" width="112.9" height="8.5"/>
</g>
<g>
	
		<rect x="322.5" y="396.7" transform="matrix(0.9978 -6.687649e-02 6.687649e-02 0.9978 -25.898 28.2945)" class="st3" width="174.3" height="8.5"/>
</g>
<g>
	
		<rect x="325.9" y="421.3" transform="matrix(0.9978 -6.687649e-02 6.687649e-02 0.9978 -27.5716 27.5002)" class="st5" width="142.1" height="8.5"/>
</g>
<g>
	
		<rect x="325.9" y="449.5" transform="matrix(0.9978 -6.687649e-02 6.687649e-02 0.9978 -29.5239 25.5841)" class="st5" width="82.9" height="8.5"/>
</g>
<g>
	
		<rect x="327.6" y="473.4" transform="matrix(0.9978 -6.687649e-02 6.687649e-02 0.9978 -31.0712 27.1654)" class="st3" width="125.2" height="8.5"/>
</g>
<g>
	
		<rect x="269.7" y="378" transform="matrix(0.9978 -6.687649e-02 6.687649e-02 0.9978 -25.1224 19.3603)" class="st5" width="13.8" height="13.8"/>
</g>
<g>
	
		<rect x="271.3" y="402.8" transform="matrix(0.9978 -6.687649e-02 6.687649e-02 0.9978 -26.7774 19.5228)" class="st3" width="13.8" height="13.8"/>
</g>
<g>
	
		<rect x="272.9" y="426.5" transform="matrix(0.9978 -6.687649e-02 6.687649e-02 0.9978 -28.3589 19.6828)" class="st5" width="13.8" height="13.8"/>
</g>
<g>
	
		<rect x="274.7" y="452.5" transform="matrix(0.9978 -6.687649e-02 6.687649e-02 0.9978 -30.0937 19.8615)" class="st5" width="13.8" height="13.8"/>
</g>
<g>
	
		<rect x="276.4" y="477.9" transform="matrix(0.9978 -6.687649e-02 6.687649e-02 0.9978 -31.7886 20.032)" class="st3" width="13.8" height="13.8"/>
</g>
<g>
	
		<rect x="329.3" y="499.3" transform="matrix(0.9978 -6.687649e-02 6.687649e-02 0.9978 -32.8133 26.9257)" class="st5" width="112.9" height="8.5"/>
</g>
<g>
	
		<rect x="330.9" y="522.2" transform="matrix(0.9978 -6.687649e-02 6.687649e-02 0.9978 -34.2725 29.1376)" class="st3" width="174.3" height="8.5"/>
</g>
<g>
	
		<rect x="334.3" y="546.8" transform="matrix(0.9978 -6.687649e-02 6.687649e-02 0.9978 -35.9461 28.3433)" class="st5" width="142.1" height="8.5"/>
</g>
<g>
	
		<rect x="334.3" y="574.9" transform="matrix(0.9978 -6.687649e-02 6.687649e-02 0.9978 -37.8917 26.4266)" class="st5" width="82.9" height="8.5"/>
</g>
<g>
	
		<rect x="336" y="598.9" transform="matrix(0.9978 -6.687649e-02 6.687649e-02 0.9978 -39.4457 28.0086)" class="st5" width="125.2" height="8.5"/>
</g>
<g>
	
		<rect x="278.1" y="503.4" transform="matrix(0.9978 -6.687649e-02 6.687649e-02 0.9978 -33.4902 20.2028)" class="st5" width="13.8" height="13.8"/>
</g>
<g>
	
		<rect x="279.7" y="528.3" transform="matrix(0.9978 -6.687649e-02 6.687649e-02 0.9978 -35.1519 20.366)" class="st3" width="13.8" height="13.8"/>
</g>
<g>
	
		<rect x="281.3" y="552" transform="matrix(0.9978 -6.687649e-02 6.687649e-02 0.9978 -36.7334 20.526)" class="st5" width="13.8" height="13.8"/>
</g>
<g>
	
		<rect x="283.1" y="578" transform="matrix(0.9978 -6.687649e-02 6.687649e-02 0.9978 -38.4682 20.7046)" class="st5" width="13.8" height="13.8"/>
</g>
<g>
	
		<rect x="284.8" y="603.4" transform="matrix(0.9978 -6.687649e-02 6.687649e-02 0.9978 -40.1631 20.8752)" class="st5" width="13.8" height="13.8"/>
</g>
<g>
	<path class="st3" d="M133.3,151.9c-19.8,1.3-34.8,18.5-33.4,38.2s18.5,34.8,38.2,33.4s34.8-18.5,33.4-38.2
		C170.2,165.6,153.1,150.6,133.3,151.9z M134,162.7c5.9-0.4,11.1,4.1,11.5,10s-4.1,11.1-10,11.5s-11.1-4.1-11.5-10l0,0
		C123.6,168.2,128.1,163.1,134,162.7z M137.5,214.4c-8.6,0.5-17-3.2-22.3-10c-0.3-7.2,13.6-12.1,20.8-12.6s21.6,2.5,22.3,9.7
		C153.9,209,146.1,213.8,137.5,214.4z"/>
</g>
</svg>
