<svg width="998" height="676" viewBox="0 0 998 676" fill="none" xmlns="http://www.w3.org/2000/svg">
<g clip-path="url(#clip0)">
<path d="M731.011 621.1C693.014 621.201 655.054 618.714 617.395 613.655C616.166 613.498 614.92 613.323 613.681 613.138C604.438 611.823 595.189 610.321 586.198 608.671C545.737 601.272 507.582 590.465 472.793 576.549C357.022 530.24 284.232 540.096 243.556 556.518C199.536 574.291 182.614 603.368 182.448 603.66L181 602.838C181.168 602.542 198.308 573.031 242.809 555.024C268.901 544.466 299.17 539.852 332.782 541.306C374.739 543.123 422.053 554.46 473.411 575.003C508.097 588.877 546.146 599.654 586.498 607.034C595.467 608.679 604.694 610.179 613.921 611.49C615.154 611.674 616.389 611.848 617.615 612.005C719.697 626.047 818.175 617.579 882.816 608.003C936.096 600.11 970.384 590.882 970.724 590.79L971.16 592.397C970.82 592.489 936.445 601.742 883.06 609.65C832.722 617.147 781.905 620.974 731.011 621.1V621.1Z" fill="#3F3D56"/>
<path d="M731.124 143.266C701.775 143.266 673.202 141.893 645.635 139.147C582.289 132.838 524.136 119.226 472.793 98.689C357.022 52.3799 284.232 62.235 243.556 78.658C199.536 96.4301 182.614 125.508 182.448 125.8L181 124.978C181.168 124.682 198.308 95.1716 242.809 77.1641C268.902 66.6058 299.17 61.9895 332.782 63.4456C374.739 65.2623 422.053 76.5995 473.411 97.1427C589.364 143.524 718.392 145.347 806.214 138.714C901.404 131.522 970.042 113.115 970.724 112.93L971.16 114.537C970.477 114.723 901.716 133.165 806.376 140.371C780.849 142.301 755.714 143.266 731.124 143.266Z" fill="#3F3D56"/>
<path d="M726.813 21.05C726.813 21.05 694.082 9.36025 673.04 56.1192C651.999 102.878 619.268 154.313 619.268 154.313L637.971 158.989C637.971 158.989 642.647 126.258 654.337 121.582L649.661 163.665C649.661 163.665 789.938 212.762 853.062 158.989L850.724 142.623C850.724 142.623 860.076 144.961 860.076 158.989L867.09 151.975C867.09 151.975 860.076 137.947 839.035 119.244C825.224 106.968 820.478 83.6122 818.847 69.01C817.625 56.8171 812.747 45.278 804.852 35.9063C790.869 19.7006 765.389 2.47629 726.813 21.05Z" fill="#2F2E41"/>
<path d="M925.47 285.641C925.47 285.641 987.063 338.176 996.121 368.973C1005.18 399.77 961.701 403.393 961.701 403.393L867.499 412.451C867.499 412.451 865.688 455.928 849.384 461.363C833.08 466.798 846.074 389.466 846.074 389.466L938.151 363.538L896.485 320.061L925.47 285.641Z" fill="#FBBEBE"/>
<path d="M637.43 339.988L630.184 436.001L590.33 599.042C590.33 599.042 554.098 673.316 584.895 675.128C615.692 676.939 613.88 604.477 613.88 604.477L671.85 450.493L677.285 345.423L637.43 339.988Z" fill="#FBBEBE"/>
<path d="M738.878 171.512C771.895 171.512 798.66 144.747 798.66 111.73C798.66 78.7139 771.895 51.9487 738.878 51.9487C705.862 51.9487 679.096 78.7139 679.096 111.73C679.096 144.747 705.862 171.512 738.878 171.512Z" fill="#FBBEBE"/>
<path d="M711.705 140.715C711.705 140.715 733.443 218.613 699.024 238.54C664.604 258.467 785.979 272.96 818.587 213.178C818.587 213.178 760.617 193.251 776.921 140.715H711.705Z" fill="#FBBEBE"/>
<path d="M670.039 247.598L659.169 243.975C659.169 243.975 637.43 253.033 637.43 269.337C637.43 285.641 633.807 350.857 633.807 350.857L682.72 356.292L670.039 247.598Z" fill="#6AC33B"/>
<path d="M882.938 608.827C816.062 618.733 718.592 626.734 617.509 612.831C617.501 611.832 617.501 610.858 617.501 609.909C617.501 604.256 617.717 598.667 618.15 593.142C623.328 525.109 658.377 468.391 671.938 448.735C672.621 447.736 673.254 446.837 673.82 446.038C676.009 442.966 677.283 441.342 677.283 441.342C677.283 441.342 782.354 439.627 836.7 461.364C839.321 462.464 841.719 464.033 843.777 465.993C864.04 484.691 875.945 545.398 882.938 608.827Z" fill="#2F2E41"/>
<path d="M843.949 222.236C843.949 222.236 867.499 209.555 891.05 236.729L938.151 291.076L901.919 330.93L833.08 289.264L843.949 222.236Z" fill="#6AC33B"/>
<path d="M674.279 112.109C695.442 96.7933 712.573 79.1523 723.906 58.1675C723.906 58.1675 762.744 101.321 786.478 103.479C810.213 105.636 788.636 51.6945 788.636 51.6945L745.482 40.9061L704.486 45.2214L672.121 66.7982L674.279 112.109Z" fill="#2F2E41"/>
<path d="M809.529 209.555C809.529 209.555 784.178 249.639 708.087 230.503L664.908 242.394L659.169 243.975C659.169 243.975 664.604 352.669 679.096 372.596C693.589 392.523 689.966 403.393 686.343 405.204C682.72 407.016 673.662 403.393 679.096 412.451C684.531 421.508 691.777 416.074 684.531 421.508C677.285 426.943 673.662 446.87 673.662 446.87L843.949 468.609C843.949 468.609 838.514 397.958 853.007 361.727C867.499 325.495 871.123 311.003 871.123 311.003L860.253 220.424L809.529 209.555Z" fill="#6AC33B"/>
</g>
<g clip-path="url(#clip1)">
<path d="M515.214 32.3189L96.8124 68.9243L144.748 616.831L563.15 580.226L515.214 32.3189Z" fill="#E6E6E6"/>
<path d="M492.793 62.8893L124.201 95.137L132.917 194.756L501.509 162.509L492.793 62.8893Z" fill="white"/>
<path d="M503.476 196.467L274.351 216.512L305.727 575.142L534.852 555.097L503.476 196.467Z" fill="white"/>
<path d="M377.085 110.521L284.017 118.664L284.629 125.659L377.697 117.516L377.085 110.521Z" fill="#E6E6E6"/>
<path d="M390.281 127.682L273.155 137.93L273.767 144.925L390.893 134.678L390.281 127.682Z" fill="#E6E6E6"/>
<path d="M438.573 285.537L345.505 293.68L346.117 300.675L439.185 292.533L438.573 285.537Z" fill="#E6E6E6"/>
<path d="M491.018 301.642L347.302 314.215L347.914 321.21L491.63 308.637L491.018 301.642Z" fill="#6AC33B"/>
<path d="M467.633 323.395L350.507 333.642L351.119 340.637L468.245 330.39L467.633 323.395Z" fill="#E6E6E6"/>
<path d="M419.266 349.249L350.89 355.231L351.502 362.227L419.878 356.244L419.266 349.249Z" fill="#E6E6E6"/>
<path d="M455.921 367.164L352.724 376.192L353.336 383.187L456.533 374.159L455.921 367.164Z" fill="#6AC33B"/>
<path d="M314.29 294.193L302.894 295.191L303.891 306.587L315.287 305.59L314.29 294.193Z" fill="#E6E6E6"/>
<path d="M316.087 314.729L304.69 315.726L305.688 327.122L317.084 326.125L316.087 314.729Z" fill="#6AC33B"/>
<path d="M317.798 334.286L306.402 335.283L307.399 346.679L318.795 345.682L317.798 334.286Z" fill="#E6E6E6"/>
<path d="M319.675 355.745L308.279 356.742L309.276 368.138L320.672 367.141L319.675 355.745Z" fill="#E6E6E6"/>
<path d="M321.509 376.706L310.113 377.703L311.11 389.099L322.506 388.102L321.509 376.706Z" fill="#6AC33B"/>
<path d="M447.637 389.142L354.569 397.284L355.181 404.279L448.249 396.137L447.637 389.142Z" fill="#E6E6E6"/>
<path d="M500.082 405.246L356.366 417.82L356.978 424.815L500.694 412.241L500.082 405.246Z" fill="#6AC33B"/>
<path d="M476.697 426.999L359.571 437.246L360.183 444.241L477.309 433.994L476.697 426.999Z" fill="#E6E6E6"/>
<path d="M428.33 452.854L359.954 458.836L360.566 465.831L428.942 459.849L428.33 452.854Z" fill="#E6E6E6"/>
<path d="M464.985 470.768L361.788 479.796L362.4 486.792L465.597 477.763L464.985 470.768Z" fill="#E6E6E6"/>
<path d="M323.354 397.798L311.958 398.795L312.955 410.191L324.351 409.194L323.354 397.798Z" fill="#E6E6E6"/>
<path d="M325.151 418.333L313.755 419.33L314.752 430.726L326.148 429.729L325.151 418.333Z" fill="#6AC33B"/>
<path d="M326.862 437.891L315.466 438.888L316.463 450.284L327.859 449.287L326.862 437.891Z" fill="#E6E6E6"/>
<path d="M328.739 459.349L317.343 460.346L318.34 471.742L329.736 470.745L328.739 459.349Z" fill="#E6E6E6"/>
<path d="M330.573 480.31L319.177 481.307L320.174 492.703L331.57 491.706L330.573 480.31Z" fill="#E6E6E6"/>
<path d="M186.619 110.024C180.762 110.537 175.188 112.775 170.602 116.455C166.017 120.135 162.626 125.093 160.857 130.701C159.089 136.308 159.024 142.314 160.669 147.959C162.315 153.604 165.597 158.635 170.101 162.414C174.605 166.194 180.129 168.553 185.974 169.193C191.819 169.833 197.722 168.725 202.938 166.01C208.153 163.295 212.447 159.095 215.275 153.94C218.103 148.785 219.339 142.907 218.826 137.049C218.117 129.204 214.331 121.958 208.297 116.894C202.262 111.831 194.469 109.361 186.619 110.024V110.024ZM187.397 118.909C189.154 118.756 190.917 119.126 192.464 119.975C194.01 120.823 195.271 122.111 196.085 123.676C196.9 125.24 197.232 127.011 197.04 128.765C196.848 130.518 196.14 132.176 195.006 133.527C193.872 134.878 192.363 135.863 190.67 136.356C188.976 136.85 187.174 136.83 185.492 136.3C183.81 135.77 182.323 134.752 181.219 133.376C180.114 132.001 179.443 130.329 179.289 128.571C179.091 126.217 179.832 123.879 181.351 122.069C182.87 120.259 185.043 119.123 187.397 118.909V118.909ZM191.139 161.681C187.628 161.972 184.098 161.403 180.857 160.021C177.616 158.639 174.761 156.488 172.54 153.753C172.164 147.818 183.583 143.533 189.506 143.015C195.429 142.497 207.418 144.733 208.079 150.644C206.363 153.721 203.925 156.334 200.973 158.257C198.022 160.18 194.646 161.355 191.139 161.681Z" fill="#6AC33B"/>
</g>
<defs>
<clipPath id="clip0">
<rect x="181" y="13" width="816.362" height="662.161" fill="white"/>
</clipPath>
<clipPath id="clip1">
<rect y="77.3943" width="888" height="567.337" transform="rotate(-5 0 77.3943)" fill="white"/>
</clipPath>
</defs>
</svg>
