<svg width="1418" height="194" viewBox="0 0 1418 194" fill="none" xmlns="http://www.w3.org/2000/svg">
<path d="M43.8 63.9C52.5 55.7 65.1 51.9 82 51.9C120.2 51.9 136.6 71.6 136.6 117.4V191.1H87.4V117.4C87.4 96.4 81.7 87.4 68.3 87.4C54.9 87.4 49.2 96.4 49.2 117.4V191.1H0V54.6H38.2L43.8 63.9Z" fill="#333333"/>
<path d="M305.9 122.9C305.9 172.6 283 193.9 229.4 193.9C175.8 193.9 152.9 172.6 152.9 122.9C152.9 73.2 175.8 51.9 229.4 51.9C283 51.9 305.9 73.2 305.9 122.9ZM229.4 158.4C248.5 158.4 256.7 147.8 256.7 122.9C256.7 98 248.5 87.4 229.4 87.4C210.3 87.4 202.1 98 202.1 122.9C202.1 147.8 210.3 158.4 229.4 158.4Z" fill="#333333"/>
<path d="M346.8 191.1L308.6 54.6H360.5L384.8 156.2L406.9 54.6H458.8L420.6 191.1H346.8Z" fill="#333333"/>
<path d="M535.2 163.8C548 163.8 554.6 158.9 557 147.4H603.4C597.7 179.9 577.2 193.8 535.1 193.8C483.5 193.8 461.4 172.5 461.4 122.8C461.4 73.1 483.5 51.8 535.1 51.8C586.7 51.8 608.8 73.1 608.8 122.8V136.5H510.5C510.6 155.6 518 163.8 535.2 163.8ZM510.6 109.2H559.8C559.8 90.1 552.4 81.9 535.2 81.9C518 81.9 510.6 90.1 510.6 109.2Z" fill="#333333"/>
<path d="M688.1 43.7V54.6H726.3V84.6H688.1V191.1H639V84.6H617.2V54.6H639V43.7C639 16.4 655.4 0 682.7 0H726.4V35.5H696.4C690.8 35.5 688.1 38.2 688.1 43.7Z" fill="#333333"/>
<path d="M887.4 122.9C887.4 172.6 864.5 193.9 810.9 193.9C757.4 193.9 734.4 172.6 734.4 122.9C734.4 73.2 757.3 51.9 810.9 51.9C864.5 51.9 887.4 73.2 887.4 122.9ZM811 158.4C830.1 158.4 838.3 147.8 838.3 122.9C838.3 98 830.1 87.4 811 87.4C791.9 87.4 783.7 98 783.7 122.9C783.7 147.8 791.9 158.4 811 158.4Z" fill="#333333"/>
<path d="M955.7 191.1H906.6V0H955.7V191.1Z" fill="#333333"/>
<path d="M983 0H1032.1V59.5C1040.3 54.3 1051.2 51.9 1064.9 51.9C1103.1 51.9 1119.5 71.6 1119.5 117.4V191.1H1070.4V117.4C1070.4 96.4 1064.7 87.4 1051.3 87.4C1037.9 87.4 1032.2 96.4 1032.2 117.4V191.1H983.1V0H983Z" fill="#333333"/>
<path d="M1204.2 103.7H1223.3V98.2C1223.3 84.8 1217.8 79.1 1205.6 79.1C1193 79.1 1187.9 84 1187.9 95.5H1141.5C1141.5 64.9 1161.2 51.8 1207 51.8C1252.9 51.8 1272.5 67.4 1272.5 103.7V191.1H1234.3L1228.6 181.3C1219.6 190 1206.5 193.9 1187.9 193.9C1151.6 193.9 1136 180.8 1136 150.2C1135.9 117.7 1156.4 103.7 1204.2 103.7ZM1209.6 131.1C1192.4 131.1 1185 134.9 1185 147.5C1185 157.9 1189.9 161.2 1201.4 161.2C1216.7 161.2 1223.2 153.8 1223.2 136.6V131.1H1209.6Z" fill="#333333"/>
<path d="M1417.1 147.4C1417.1 179.9 1396.9 193.8 1349.9 193.8C1307 193.8 1288.7 180.7 1288.7 150.1H1335.1C1335.1 161.6 1340 166.5 1351.5 166.5C1363 166.5 1367.9 162.4 1367.9 152.8C1367.9 128.2 1288.7 150.1 1288.7 95.5C1288.7 64.9 1307.5 51.8 1351.5 51.8C1393.5 51.8 1411.6 64.1 1411.6 92.8H1367.9C1367.9 83.2 1363 79.1 1351.5 79.1C1340 79.1 1335.1 82.4 1335.1 90.3C1335.2 111.9 1417.1 92.8 1417.1 147.4Z" fill="#333333"/>
</svg>
