<svg width="184" height="41" viewBox="0 0 184 41" fill="none" xmlns="http://www.w3.org/2000/svg">
<path d="M0 4C0 1.79086 1.79086 0 4 0H180C182.209 0 184 1.79086 184 4V37C184 39.2091 182.209 41 180 41H4C1.79086 41 0 39.2091 0 37V4Z" fill="#35C680"/>
<path d="M55.28 21.98C56.6267 21.98 57.7067 22.38 58.52 23.18C59.3467 23.98 59.76 25.1867 59.76 26.8V33H55.96V27.42C55.96 25.94 55.3667 25.2 54.18 25.2C53.5267 25.2 53 25.4133 52.6 25.84C52.2133 26.2667 52.02 26.9067 52.02 27.76V33H48.22V18.16H52.02V23.16C52.4333 22.7733 52.92 22.48 53.48 22.28C54.04 22.08 54.64 21.98 55.28 21.98ZM73.5458 22.16V33H69.9258V31.84C69.5258 32.28 69.0458 32.6133 68.4858 32.84C67.9258 33.0667 67.3324 33.18 66.7058 33.18C65.3058 33.18 64.1858 32.7667 63.3458 31.94C62.5191 31.1133 62.1058 29.8733 62.1058 28.22V22.16H65.9058V27.6C65.9058 28.4133 66.0591 29.0067 66.3658 29.38C66.6724 29.7533 67.1191 29.94 67.7058 29.94C68.3058 29.94 68.7924 29.7333 69.1658 29.32C69.5524 28.8933 69.7458 28.2467 69.7458 27.38V22.16H73.5458ZM87.6534 22.16V31.02C87.6534 33.0333 87.1068 34.54 86.0134 35.54C84.9201 36.5533 83.3468 37.06 81.2934 37.06C80.2268 37.06 79.2268 36.94 78.2934 36.7C77.3601 36.46 76.5668 36.1067 75.9134 35.64L77.2934 32.98C77.7334 33.34 78.2868 33.62 78.9534 33.82C79.6334 34.0333 80.3001 34.14 80.9534 34.14C81.9534 34.14 82.6868 33.92 83.1534 33.48C83.6201 33.04 83.8534 32.3867 83.8534 31.52V31.16C83.1201 32.0133 82.0468 32.44 80.6334 32.44C79.6734 32.44 78.7868 32.2267 77.9734 31.8C77.1601 31.36 76.5134 30.7467 76.0334 29.96C75.5534 29.16 75.3134 28.24 75.3134 27.2C75.3134 26.1733 75.5534 25.2667 76.0334 24.48C76.5134 23.68 77.1601 23.0667 77.9734 22.64C78.7868 22.2 79.6734 21.98 80.6334 21.98C82.1801 21.98 83.3134 22.48 84.0334 23.48V22.16H87.6534ZM81.5334 29.42C82.2134 29.42 82.7734 29.2133 83.2134 28.8C83.6668 28.3867 83.8934 27.8533 83.8934 27.2C83.8934 26.5467 83.6734 26.02 83.2334 25.62C82.7934 25.2067 82.2268 25 81.5334 25C80.8401 25 80.2668 25.2067 79.8134 25.62C79.3734 26.02 79.1534 26.5467 79.1534 27.2C79.1534 27.8533 79.3801 28.3867 79.8334 28.8C80.2868 29.2133 80.8534 29.42 81.5334 29.42ZM95.535 33.18C94.375 33.18 93.3283 32.94 92.395 32.46C91.4617 31.98 90.7283 31.3133 90.195 30.46C89.675 29.6067 89.415 28.64 89.415 27.56C89.415 26.4933 89.675 25.5333 90.195 24.68C90.7283 23.8267 91.455 23.1667 92.375 22.7C93.3083 22.22 94.3617 21.98 95.535 21.98C96.7083 21.98 97.7617 22.22 98.695 22.7C99.6283 23.1667 100.355 23.8267 100.875 24.68C101.395 25.52 101.655 26.48 101.655 27.56C101.655 28.64 101.395 29.6067 100.875 30.46C100.355 31.3133 99.6283 31.98 98.695 32.46C97.7617 32.94 96.7083 33.18 95.535 33.18ZM95.535 30.16C96.2017 30.16 96.7483 29.9333 97.175 29.48C97.6017 29.0133 97.815 28.3733 97.815 27.56C97.815 26.76 97.6017 26.1333 97.175 25.68C96.7483 25.2267 96.2017 25 95.535 25C94.8683 25 94.3217 25.2267 93.895 25.68C93.4683 26.1333 93.255 26.76 93.255 27.56C93.255 28.3733 93.4683 29.0133 93.895 29.48C94.3217 29.9333 94.8683 30.16 95.535 30.16ZM110.235 21.98C111.222 21.98 112.115 22.2067 112.915 22.66C113.729 23.1133 114.369 23.7667 114.835 24.62C115.315 25.46 115.555 26.44 115.555 27.56C115.555 28.68 115.315 29.6667 114.835 30.52C114.369 31.3733 113.729 32.0333 112.915 32.5C112.115 32.9533 111.222 33.18 110.235 33.18C108.809 33.18 107.742 32.76 107.035 31.92V33H103.415V18.16H107.215V23.1C107.949 22.3533 108.955 21.98 110.235 21.98ZM109.435 30.16C110.102 30.16 110.649 29.9333 111.075 29.48C111.502 29.0133 111.715 28.3733 111.715 27.56C111.715 26.76 111.502 26.1333 111.075 25.68C110.649 25.2267 110.102 25 109.435 25C108.769 25 108.222 25.2267 107.795 25.68C107.369 26.1333 107.155 26.76 107.155 27.56C107.155 28.3733 107.369 29.0133 107.795 29.48C108.222 29.9333 108.769 30.16 109.435 30.16ZM120.942 23.46C121.328 22.9667 121.828 22.6 122.442 22.36C123.068 22.1067 123.782 21.98 124.582 21.98V25.4C124.235 25.36 123.948 25.34 123.722 25.34C122.908 25.34 122.268 25.56 121.802 26C121.348 26.44 121.122 27.1133 121.122 28.02V33H117.322V22.16H120.942V23.46ZM130.692 21.98C132.492 21.98 133.865 22.3933 134.812 23.22C135.758 24.0333 136.232 25.2867 136.232 26.98V33H132.692V31.6C132.145 32.6533 131.078 33.18 129.492 33.18C128.652 33.18 127.925 33.0333 127.312 32.74C126.698 32.4467 126.232 32.0533 125.912 31.56C125.605 31.0533 125.452 30.48 125.452 29.84C125.452 28.8133 125.845 28.02 126.632 27.46C127.418 26.8867 128.632 26.6 130.272 26.6H132.432C132.365 25.4533 131.598 24.88 130.132 24.88C129.612 24.88 129.085 24.9667 128.552 25.14C128.018 25.3 127.565 25.5267 127.192 25.82L125.912 23.24C126.512 22.84 127.238 22.5333 128.092 22.32C128.958 22.0933 129.825 21.98 130.692 21.98ZM130.552 30.78C130.992 30.78 131.378 30.6733 131.712 30.46C132.045 30.2467 132.285 29.9333 132.432 29.52V28.58H130.792C129.685 28.58 129.132 28.9467 129.132 29.68C129.132 30.0133 129.258 30.28 129.512 30.48C129.765 30.68 130.112 30.78 130.552 30.78ZM145.69 21.98C147.037 21.98 148.117 22.38 148.93 23.18C149.757 23.98 150.17 25.1867 150.17 26.8V33H146.37V27.42C146.37 25.94 145.777 25.2 144.59 25.2C143.937 25.2 143.41 25.4133 143.01 25.84C142.623 26.2667 142.43 26.9067 142.43 27.76V33H138.63V22.16H142.25V23.34C142.677 22.9 143.183 22.5667 143.77 22.34C144.357 22.1 144.997 21.98 145.69 21.98ZM158.252 33.18C157.052 33.18 155.979 32.94 155.032 32.46C154.086 31.98 153.346 31.3133 152.812 30.46C152.292 29.6067 152.032 28.64 152.032 27.56C152.032 26.48 152.292 25.52 152.812 24.68C153.346 23.8267 154.086 23.1667 155.032 22.7C155.979 22.22 157.052 21.98 158.252 21.98C159.479 21.98 160.539 22.2467 161.432 22.78C162.326 23.3 162.959 24.0267 163.332 24.96L160.392 26.46C159.899 25.4867 159.179 25 158.232 25C157.552 25 156.986 25.2267 156.532 25.68C156.092 26.1333 155.872 26.76 155.872 27.56C155.872 28.3733 156.092 29.0133 156.532 29.48C156.986 29.9333 157.552 30.16 158.232 30.16C159.179 30.16 159.899 29.6733 160.392 28.7L163.332 30.2C162.959 31.1333 162.326 31.8667 161.432 32.4C160.539 32.92 159.479 33.18 158.252 33.18ZM170.086 33.18C168.926 33.18 167.879 32.94 166.946 32.46C166.012 31.98 165.279 31.3133 164.746 30.46C164.226 29.6067 163.966 28.64 163.966 27.56C163.966 26.4933 164.226 25.5333 164.746 24.68C165.279 23.8267 166.006 23.1667 166.926 22.7C167.859 22.22 168.912 21.98 170.086 21.98C171.259 21.98 172.312 22.22 173.246 22.7C174.179 23.1667 174.906 23.8267 175.426 24.68C175.946 25.52 176.206 26.48 176.206 27.56C176.206 28.64 175.946 29.6067 175.426 30.46C174.906 31.3133 174.179 31.98 173.246 32.46C172.312 32.94 171.259 33.18 170.086 33.18ZM170.086 30.16C170.752 30.16 171.299 29.9333 171.726 29.48C172.152 29.0133 172.366 28.3733 172.366 27.56C172.366 26.76 172.152 26.1333 171.726 25.68C171.299 25.2267 170.752 25 170.086 25C169.419 25 168.872 25.2267 168.446 25.68C168.019 26.1333 167.806 26.76 167.806 27.56C167.806 28.3733 168.019 29.0133 168.446 29.48C168.872 29.9333 169.419 30.16 170.086 30.16Z" fill="white"/>
<path d="M32.4049 10.0966H29.3345V13.2144H32.4049V10.0966ZM15.087 11.6617H10.7181V15.6052H14.8443C17.4656 15.6052 18.9583 16.8992 18.9583 19.253C18.9583 21.6684 17.4656 22.9993 14.8443 22.9993H10.7181V15.6052H6.10645V32.8582H10.7181V26.9429H15.087C20.3904 26.9429 23.4243 24.0222 23.4243 19.0928C23.4243 14.3975 20.3904 11.6617 15.087 11.6617ZM35.4752 6.97873H26.252V16.3446H35.4752V6.97873ZM33.934 14.7795H27.7811V8.54382H33.934V14.7795Z" fill="white"/>
</svg>
